<?xml version="1.0" encoding="UTF-8"?>
<!DOCTYPE svg PUBLIC "-//W3C//DTD SVG 1.1//EN" "http://www.w3.org/Graphics/SVG/1.1/DTD/svg11.dtd">
<!-- Creator: CorelDRAW X7 -->
<svg xmlns="http://www.w3.org/2000/svg" xml:space="preserve" width="134.438mm" height="134.438mm" version="1.1" style="shape-rendering:geometricPrecision; text-rendering:geometricPrecision; image-rendering:optimizeQuality; fill-rule:evenodd; clip-rule:evenodd"
viewBox="0 0 13444 13444"
 xmlns:xlink="http://www.w3.org/1999/xlink">
 <defs>
  <style type="text/css">
   <![CDATA[
    .fil0 {fill:#2B2A29}
   ]]>
  </style>
 </defs>
 <g id="Слой_x0020_1">
  <metadata id="CorelCorpID_0Corel-Layer"/>
  <path class="fil0" d="M6722 6722l3758 0 0 0 1000 -1 0 1c0,1314 -532,2504 -1393,3365 -861,861 -2051,1393 -3365,1393 -1314,0 -2504,-532 -3365,-1393 -861,-861 -1394,-2051 -1394,-3365 0,-1314 533,-2504 1394,-3365 861,-861 2051,-1394 3365,-1394 1314,0 2504,533 3365,1394 293,293 548,624 757,985l-867 500c-165,-285 -366,-546 -597,-778 -681,-680 -1620,-1101 -2658,-1101 -1038,0 -1978,421 -2658,1101 -680,680 -1101,1620 -1101,2658 0,1038 421,1977 1101,2658 680,680 1620,1100 2658,1100 1038,0 1977,-420 2658,-1100 453,-454 791,-1022 966,-1658l-3624 0 0 -1000zm0 -6722c1856,0 3537,752 4753,1969 407,407 762,866 1054,1366l-420 243 -446 257c-248,-424 -550,-814 -895,-1159 -1036,-1036 -2466,-1676 -4046,-1676 -1580,0 -3011,640 -4046,1676 -1036,1035 -1676,2466 -1676,4046 0,1580 640,3010 1676,4046 1035,1035 2466,1676 4046,1676 1580,0 3010,-641 4046,-1676 1035,-1036 1676,-2466 1676,-4046l0 -1 1000 0 0 1c0,1856 -753,3537 -1969,4753 -1216,1216 -2897,1969 -4753,1969 -1856,0 -3537,-753 -4753,-1969 -1217,-1216 -1969,-2897 -1969,-4753 0,-1856 752,-3537 1969,-4753 1216,-1217 2897,-1969 4753,-1969z"/>
 </g>
</svg>
