<?xml version="1.0" encoding="UTF-8"?>
<!DOCTYPE svg PUBLIC "-//W3C//DTD SVG 1.1//EN" "http://www.w3.org/Graphics/SVG/1.1/DTD/svg11.dtd">
<!-- Creator: CorelDRAW X7 -->
<svg xmlns="http://www.w3.org/2000/svg" xml:space="preserve" width="55.835mm" height="12.976mm" version="1.1" style="shape-rendering:geometricPrecision; text-rendering:geometricPrecision; image-rendering:optimizeQuality; fill-rule:evenodd; clip-rule:evenodd"
viewBox="0 0 5584 698"
 xmlns:xlink="http://www.w3.org/1999/xlink">
 <defs>
  <style type="text/css">
   <![CDATA[
    .fil0 {fill:#2B2A29;fill-rule:nonzero}
   ]]>
  </style>
 </defs>
 <g id="Слой_x0020_1">
  <metadata id="CorelCorpID_0Corel-Layer"/>
  <path class="fil0" d="M185 549c-22,0 -41,-6 -57,-16 -16,-11 -30,-28 -42,-51l-73 -147c-5,-8 -8,-18 -10,-27 -2,-10 -3,-21 -3,-33 0,-12 1,-23 3,-34 2,-10 5,-19 10,-28l73 -146c12,-23 25,-40 41,-51 17,-11 36,-16 58,-16l126 0c12,0 21,3 29,10 7,6 11,15 11,26 0,10 -4,18 -12,25 -7,7 -17,10 -28,10l-126 0c-7,0 -13,2 -19,6 -6,4 -11,9 -15,16l-72 148c-3,5 -4,10 -5,15 -1,6 -2,12 -2,18 0,7 1,13 2,18 1,6 2,11 5,16l72 147c4,7 9,12 15,16 6,4 12,6 19,6l126 0c12,0 21,4 29,10 7,7 11,16 11,26 0,10 -4,19 -12,26 -7,6 -17,10 -28,10l-126 0zm410 -361l0 37 59 -51c8,-8 19,-14 31,-18 13,-5 25,-7 36,-7l47 0c29,0 54,10 75,31 20,21 31,45 31,74l0 16c0,12 -3,22 -10,29 -7,7 -15,11 -26,11 -10,0 -19,-4 -25,-11 -7,-8 -10,-17 -10,-29l0 -16c0,-9 -4,-17 -11,-24 -6,-7 -15,-11 -24,-11l-47 0c-3,0 -8,1 -13,3 -5,2 -9,5 -12,8l-101 89 0 190c0,12 -4,21 -10,29 -7,7 -16,11 -26,11 -10,0 -19,-4 -26,-12 -6,-7 -10,-16 -10,-28l0 -321c0,-12 4,-22 10,-28 7,-7 15,-11 26,-11 10,0 19,4 26,11 6,7 10,17 10,28zm523 0l0 47 93 212 22 0 93 -212 0 -47c0,-11 3,-21 10,-28 7,-7 15,-11 26,-11 10,0 19,4 25,11 7,7 10,16 10,28l0 53c0,3 0,6 -1,9 0,3 -2,7 -4,12l-182 418c-2,5 -7,9 -14,12 -6,4 -13,6 -22,6l-88 0c-12,0 -22,-4 -29,-10 -7,-7 -10,-15 -10,-26 0,-10 3,-19 10,-25 8,-7 17,-10 29,-10l70 0 47 -108 -12 0c-9,0 -16,-2 -22,-5 -7,-3 -11,-7 -13,-13l-104 -239c-2,-4 -4,-8 -4,-11 -1,-3 -1,-6 -1,-10l0 -53c0,-12 3,-22 10,-28 6,-7 15,-11 25,-11 11,0 19,4 26,11 7,7 10,17 10,28zm620 18c-5,0 -9,1 -13,2 -4,2 -8,4 -11,8l-64 63c-3,2 -5,6 -6,10 -2,4 -3,9 -3,14l0 90c0,6 1,10 3,14 1,4 3,8 6,11l64 63c3,3 7,6 11,8 5,2 9,3 13,3l16 0c4,0 8,-1 13,-3 5,-2 9,-4 12,-7l59 -51c3,-2 5,-5 8,-10 2,-5 3,-10 3,-14l0 -118c0,-4 -1,-9 -3,-14 -3,-5 -5,-9 -8,-11l-59 -50c-3,-3 -7,-5 -11,-6 -4,-2 -9,-2 -14,-2l-16 0zm-97 -32l0 14 17 -17c13,-12 25,-22 39,-28 13,-6 27,-9 41,-9l18 0c11,0 23,2 35,7 12,4 23,11 33,19l59 49c11,10 20,22 27,36 7,15 11,29 11,44l0 118c0,15 -4,30 -11,45 -7,14 -16,26 -27,36l-61 49c-9,8 -19,15 -31,19 -12,5 -24,7 -37,7l-16 0c-14,0 -28,-3 -41,-9 -14,-7 -26,-16 -39,-28l-17 -17 0 149c0,12 -3,21 -10,29 -6,7 -15,11 -25,11 -11,0 -19,-4 -26,-12 -7,-7 -10,-17 -10,-28l0 -484c0,-12 3,-22 10,-29 6,-8 15,-11 26,-11 10,0 18,4 25,11 7,8 10,17 10,29zm594 -105l0 80 135 0c12,0 21,3 28,10 8,6 11,15 11,26 0,10 -3,19 -11,25 -7,7 -17,10 -28,10l-135 0 0 223c0,10 3,18 10,25 6,6 14,9 24,9l70 0c8,0 14,-2 20,-6 6,-4 10,-10 13,-18 0,-1 1,-3 2,-6 7,-20 18,-30 34,-30 10,0 18,4 25,11 7,6 10,14 10,23 0,25 -10,47 -31,67 -21,20 -46,31 -74,31l-69 0c-29,0 -54,-11 -75,-32 -21,-20 -31,-45 -31,-74l0 -223 -30 0c-12,0 -22,-3 -29,-10 -7,-6 -10,-15 -10,-25 0,-11 3,-19 11,-26 7,-7 17,-10 28,-10l30 0 0 -80c0,-13 3,-22 10,-29 6,-7 15,-10 26,-10 10,0 19,3 26,10 7,8 10,17 10,29zm518 150c-3,0 -7,1 -11,3 -3,1 -7,3 -11,6l-30 25c-4,3 -7,7 -9,12 -3,5 -4,10 -4,15l0 138c0,5 1,10 4,15 2,5 5,8 9,11l30 26c4,3 7,4 11,6 4,1 7,1 11,1l78 0c4,0 8,0 12,-2 4,-1 7,-3 10,-5l30 -26c4,-2 7,-6 10,-11 2,-5 3,-10 3,-15l0 -138c0,-5 -1,-10 -3,-15 -2,-5 -5,-9 -9,-11l-31 -26c-4,-3 -7,-5 -11,-6 -4,-2 -7,-3 -11,-3l-78 0zm0 -70l78 0c12,0 24,2 35,6 12,5 23,11 33,19l30 24c12,10 21,22 28,37 7,14 10,29 10,45l0 138c0,16 -3,30 -10,45 -6,14 -16,26 -28,36l-30 25c-10,8 -21,14 -33,18 -11,4 -23,7 -35,7l-78 0c-12,0 -24,-3 -35,-7 -11,-4 -22,-10 -33,-18l-30 -25c-12,-10 -21,-22 -28,-36 -7,-15 -10,-29 -10,-45l0 -138c0,-16 3,-31 10,-45 7,-15 16,-27 28,-37l30 -24c11,-9 22,-15 33,-19 11,-4 23,-6 35,-6zm596 -149l102 0c12,0 22,3 29,10 7,6 11,15 11,26 0,10 -4,18 -11,25 -8,7 -17,10 -29,10l-102 0c-4,0 -9,1 -14,4 -6,2 -9,5 -11,7l-92 118c-8,11 -13,21 -16,28 -3,7 -5,15 -5,23l0 191c0,10 4,18 11,25 7,7 16,10 25,10l136 0c10,0 18,-3 25,-10 7,-7 11,-15 11,-25l0 -72 -65 0c-12,0 -21,-3 -29,-10 -7,-6 -10,-15 -10,-26 0,-10 3,-19 11,-25 7,-7 17,-10 28,-10l137 0 0 143c0,29 -11,54 -32,75 -21,21 -46,32 -75,32l-136 0c-30,0 -55,-11 -76,-32 -21,-20 -32,-46 -32,-75l0 -191c0,-16 3,-31 9,-46 5,-15 16,-33 32,-55l82 -109c9,-12 22,-21 38,-29 16,-8 32,-12 48,-12zm420 369c-9,0 -17,4 -24,10 -7,7 -10,16 -10,25l0 40c0,9 3,17 10,23 7,7 15,10 25,10l94 0 77 -43 -1 -31c0,-10 -4,-18 -10,-24 -7,-7 -15,-10 -25,-10l-136 0zm4 -220l126 0c29,0 53,10 74,30 20,20 31,45 32,75l9 254 0 2c0,11 -3,20 -10,27 -7,8 -15,12 -25,12 -9,0 -18,-3 -24,-10 -6,-6 -10,-15 -12,-26l-41 26c-5,3 -10,5 -16,7 -6,2 -11,3 -15,3l-101 0c-30,0 -55,-11 -75,-31 -21,-21 -31,-45 -31,-74l0 -40c0,-29 10,-54 31,-75 21,-21 46,-31 75,-31l135 0c6,0 11,0 16,1 6,1 11,3 15,5l-2 -50c-1,-10 -4,-18 -11,-25 -6,-6 -14,-9 -24,-9l-126 0c-12,0 -21,-3 -28,-9 -7,-7 -10,-15 -10,-26 0,-11 3,-20 10,-26 7,-7 17,-10 28,-10zm763 81l9 278 0 2c0,11 -3,20 -10,27 -7,8 -15,12 -25,12 -10,0 -19,-4 -25,-11 -7,-7 -10,-16 -11,-28l-9 -276c0,-4 -2,-7 -4,-10 -3,-3 -6,-4 -10,-4 -1,0 -3,0 -5,1 -2,1 -3,2 -4,3l-44 38 0 247c0,12 -3,21 -10,29 -7,7 -15,11 -26,11 -10,0 -19,-4 -25,-12 -7,-7 -10,-16 -10,-28l0 -274c0,-3 -2,-7 -5,-10 -3,-3 -7,-5 -11,-5 -2,0 -4,1 -6,1 -2,1 -3,2 -5,4l-49 40 0 244c0,12 -4,21 -10,29 -7,7 -15,11 -26,11 -10,0 -19,-4 -25,-12 -7,-7 -11,-16 -11,-28l0 -321c0,-12 4,-21 10,-28 7,-7 15,-11 26,-11 8,0 15,2 21,7 5,4 10,11 13,19l12 -9c8,-6 15,-10 23,-13 8,-3 17,-4 27,-4 13,0 26,3 37,8 11,5 23,14 33,25l8 -7c13,-10 23,-17 32,-20 8,-4 18,-6 28,-6 24,0 45,8 61,23 16,16 25,35 26,58zm311 -11c-4,0 -7,1 -11,3 -4,1 -8,3 -11,6l-31 25c-4,3 -7,7 -9,12 -2,5 -3,10 -3,15l0 48 208 0 0 -48c0,-5 -1,-10 -4,-15 -2,-5 -5,-9 -9,-11l-30 -26c-4,-3 -8,-5 -11,-6 -4,-2 -8,-3 -11,-3l-78 0zm-1 -70l79 0c11,0 23,2 35,6 12,5 22,11 32,19l31 24c11,10 21,22 28,37 7,14 10,29 10,45l0 84c0,10 -4,19 -11,26 -8,6 -17,10 -29,10l-239 0 0 18c0,5 1,10 3,15 2,4 5,8 9,11l31 26c3,3 6,4 10,6 3,1 7,1 12,1l174 0c12,0 22,4 29,10 7,7 11,16 11,26 0,10 -4,19 -11,26 -8,6 -17,10 -29,10l-175 0c-12,0 -23,-3 -35,-7 -11,-4 -22,-10 -32,-18l-30 -25c-12,-10 -22,-22 -28,-36 -7,-15 -11,-30 -11,-45l0 -138c0,-16 4,-31 11,-45 6,-15 16,-27 28,-37l30 -24c10,-9 21,-15 32,-19 12,-4 23,-6 35,-6zm487 0l150 0c24,0 45,7 64,21 19,15 29,29 29,44 0,10 -4,19 -11,25 -7,7 -15,11 -25,11 -9,0 -18,-5 -28,-15 -10,-10 -20,-15 -29,-15l-150 0c-6,0 -11,2 -15,6 -3,4 -5,9 -5,16 0,3 1,7 3,10 3,3 6,6 9,7l192 82c21,9 37,23 49,40 12,18 17,38 17,60 0,30 -10,55 -31,76 -22,21 -47,32 -76,32l-139 0c-25,0 -49,-8 -70,-22 -22,-15 -33,-29 -33,-44 0,-9 3,-17 10,-24 7,-8 15,-11 25,-11 7,0 18,5 31,15 13,10 25,14 37,14l139 0c10,0 18,-3 25,-10 8,-7 11,-16 11,-26 0,-7 -2,-14 -6,-20 -4,-6 -10,-11 -17,-14l-191 -83c-17,-7 -31,-19 -41,-34 -10,-15 -16,-31 -16,-49 0,-26 9,-47 27,-65 18,-18 40,-27 65,-27z"/>
 </g>
</svg>
