<?xml version="1.0" encoding="UTF-8"?>
<!DOCTYPE svg PUBLIC "-//W3C//DTD SVG 1.1//EN" "http://www.w3.org/Graphics/SVG/1.1/DTD/svg11.dtd">
<!-- Creator: CorelDRAW X6 -->
<svg xmlns="http://www.w3.org/2000/svg" xml:space="preserve" version="1.1" style="shape-rendering:geometricPrecision; text-rendering:geometricPrecision; image-rendering:optimizeQuality; fill-rule:evenodd; clip-rule:evenodd"
viewBox="0 0 3540000 3540000"
 xmlns:xlink="http://www.w3.org/1999/xlink"
 enable-background="new 0 0 32 32">
 <defs>
  <style type="text/css">
   <![CDATA[
    .krbteltopfil0 {fill:#37446E}
    .krbteltopfil1 {fill:#DF691A}
   ]]>
  </style>
 </defs>
 <g>
  <path class="krbteltopfil1" d="M2100766 1688875c-16886,0 -29901,-1735 -39424,-5605 -9110,-3906 -16036,-10844 -20390,-20390 -3871,-9960 -6490,-22527 -6927,-37690 -401,-15151 -401,-34220 -401,-57194l0 -179396c-11729,-849 -23860,-1298 -35554,-1298l-91851 0 0 644646c0,41524 -12756,114496 -109185,114496 -109634,0 -109186,-72901 -109186,-114496l0 -1447789c0,-39825 37395,-96359 109186,-96359 74788,0 109634,56534 109634,96359l0 615960 91414 0c11694,0 23824,0 35554,0l0 -166380c0,-23824 0,-43766 401,-59779 448,-16036 3056,-29051 7823,-38126 4756,-9546 11694,-16484 20792,-20390 9109,-4319 22974,-6490 40710,-6490 17369,0 30786,1735 40309,5640 9109,3906 16036,10845 20390,20355 3870,9960 6490,22527 6927,37690 401,15186 401,34255 401,57194l0 136066c22125,-10396 42043,-23411 59814,-39424 29465,-24709 55460,-55908 77998,-93586 22526,-37724 42445,-82340 60215,-134331l111664 -322175c16036,-46351 43624,-91191 134001,-88571 67625,1959 111616,50882 88393,111770l-130390 341869c-18655,51991 -38125,96206 -57631,133895 -19954,37276 -41595,68888 -65419,95769 -23860,26845 -49418,48521 -77148,66304 -28167,17334 -59366,30751 -94035,41146l0 2585c39861,14313 74966,30786 105728,49855 31200,19068 59366,42881 85810,70611 25995,27730 50256,61513 72346,100961 21688,39423 43329,86210 64569,141234l154687 390839c22939,57997 12909,106130 -91002,111805 -67484,3682 -108855,-8484 -132750,-72050l-143665 -381176c-19942,-54174 -42480,-100076 -67189,-138201 -24261,-38126 -52841,-69361 -84925,-94035 -22089,-17770 -45465,-31635 -71059,-42043l0 145140c0,23860 -402,43766 -1287,59814 -849,16036 -3469,29016 -7375,38126 -4307,9511 -11245,16449 -21204,20355 -9546,4354 -23411,6490 -40746,6490l-23 0z"/>
  <path class="krbteltopfil0" d="M2194540 48451c345894,0 659101,140231 885779,366909 226666,226678 366909,539885 366909,885779 0,345846 -140243,659101 -366909,885767 -85396,85408 -182381,160079 -290209,216530 -39093,20426 -82163,34291 -113091,33889 -87285,-1215 -164646,-121433 -15564,-195585 7823,-3905 15705,-7929 23411,-12024 93255,-49265 178180,-112289 252083,-186180 189945,-189945 307461,-452495 307461,-742409 0,-289950 -117516,-552464 -307461,-742409 -189944,-189944 -452459,-307461 -742409,-307461 -289914,0 -552464,117517 -742408,307461 -77220,77219 -140385,167454 -192187,264804 -8815,16626 -16744,31671 -28686,48451 -29134,40934 -88099,53100 -132490,18514 -24261,-18915 -67225,-68664 -15635,-167702 59330,-113799 135664,-217450 225639,-307425 226667,-226666 539921,-366909 885767,-366909z"/>
  <path class="krbteltopfil0" d="M1249136 2326441l-400421 -400315c-18325,-18326 -28580,-43106 -28580,-68995 0,-25889 10255,-50740 28580,-68994l237475 -237369c74151,-74151 74151,-194842 0,-269005l-271211 -271211c-71909,-71791 -197166,-71909 -269076,0 -4271,4272 -9074,8189 -14160,11729 -11210,7824 -283530,202559 -238843,604715 5935,53584 -32604,101775 -86140,107710 -53065,6160 -101775,-32603 -107711,-86140 -54056,-485723 258420,-740261 314836,-781903 146060,-140090 395229,-137765 538965,5864l271211 271212c150261,150261 150261,394639 0,544900l-168303 168480 337893 337893 1770 1806 849 920 330766 330766 168481 -168410c72676,-72794 169365,-112878 272391,-112878 103026,0 199821,40084 272580,112796l271211 271435c72794,72641 112914,169401 112914,272356 0,100111 -37937,194440 -107014,266456 -35506,48014 -227044,283235 -586283,317196 -28981,2808 -58445,4059 -88016,4059 -381884,0 -804689,-228472 -1258730,-680306l-35 -35 -921 -850 -2725 -2619c-239729,-239729 -419160,-473699 -533396,-695469 -24662,-47908 -5864,-106754 42044,-131428 48085,-24662 106754,-5747 131428,42043l4897 9476 71 71 4944 9404 106 189 4980 9334 189 295 5015 9216 5274 9546 5346 9546 5451 9593 401 708 5122 8921 483 779 5157 8850 5711 9617 5829 9664 5900 9664 5971 9700 6089 9735 6160 9735 6230 9735 1027 1581 5310 8189 6419 9771 6525 9806 6596 9805 6644 9771 35 71 6785 9841 6856 9888 6974 9877 7044 9924 7116 9923 7186 9924 7304 9959 7411 9960 7445 9994 7564 9995 7670 10030 23459 30125 8000 10101 8071 10065 8154 10101 8260 10136 8331 10137 8437 10136 8484 10183 8590 10184 8697 10183 8744 10207 8850 10219 8956 10254 9003 10254 9110 10254 9180 10290 9299 10290 9369 10289 9440 10325 9511 10325 9617 10325 9699 10361 9771 10360 9841 10360 9959 10396 10030 10396 10101 10396 10219 10443 10289 10431 10361 10443 2431 2360c442830,442937 856420,659726 1198478,627949 301490,-28509 447622,-238549 449108,-240791 3434,-5086 7305,-9841 11730,-14160 35883,-35837 55684,-83745 55684,-134449 0,-50705 -19801,-98530 -55720,-134449l-271211 -271330c-35919,-35919 -83709,-55601 -134626,-55601 -50811,0 -98530,19694 -134331,55601l-237582 237357c-38173,38173 -99828,38173 -137953,0l-406735 -406734 -2135 -2218 -36 -36 0 36z"/>
 </g>
</svg>
