<svg width="111" height="34" viewBox="0 0 111 34" fill="none" xmlns="http://www.w3.org/2000/svg">
<path d="M55.9283 26.8154L48.6968 16.9528L55.6343 7.58462H50.2842L43.9934 15.9363V7.58462H39.29V26.8154H43.9934V17.9143L50.5782 26.8154H55.9283Z" fill="black"/>
<path d="M67.2904 13.0791V20.5791C67.2904 22.5297 66.1733 23.4088 64.5565 23.4088C63.1455 23.4088 61.9991 22.6121 61.9991 20.9088V13.0791H57.5896V21.5132C57.5896 25.222 60.1177 27.2 63.0867 27.2C65.0269 27.2 66.4967 26.5407 67.2904 25.5242V26.8154H71.6998V13.0791H67.2904Z" fill="black"/>
<path d="M84.3719 12.6945C82.4317 12.6945 80.9619 13.3538 80.1682 14.3703V13.0791H75.7588V26.8154H80.1682V19.3154C80.1682 17.3648 81.2853 16.4857 82.9021 16.4857C84.3131 16.4857 85.4595 17.2824 85.4595 18.9857V26.8154H89.869V18.3813C89.869 14.6725 87.3409 12.6945 84.3719 12.6945Z" fill="black"/>
<path d="M104.393 13.0791V14.3703C103.423 13.3264 101.982 12.6945 100.013 12.6945C96.162 12.6945 92.9873 15.8538 92.9873 19.9473C92.9873 24.0407 96.162 27.2 100.013 27.2C101.982 27.2 103.423 26.5681 104.393 25.5242V26.8154H108.802V13.0791H104.393ZM100.895 23.2989C98.8665 23.2989 97.3967 22.0077 97.3967 19.9473C97.3967 17.8868 98.8665 16.5956 100.895 16.5956C102.923 16.5956 104.393 17.8868 104.393 19.9473C104.393 22.0077 102.923 23.2989 100.895 23.2989Z" fill="black"/>
<path fill-rule="evenodd" clip-rule="evenodd" d="M3.84668 33.9846C3.98564 33.9948 4.12768 34 4.27266 34H21.8035C25.272 34 27.3071 30.365 25.322 27.7153L17.8376 17.7251C17.3841 17.1197 17.3302 16.3391 17.6753 15.6923C15.7513 18.237 13.8276 20.782 11.9037 23.3274C9.21893 26.8794 6.53375 30.4319 3.84668 33.9846Z" fill="#312A7D"/>
<path fill-rule="evenodd" clip-rule="evenodd" d="M2.03847e-10 30.0147C-2.00042e-05 32.1837 1.4723 33.8193 3.8387 34C10.8166 24.766 17.7817 15.533 24.7601 6.30764C26.7655 3.65644 24.7307 0 21.2498 0H4.29465C1.92278 0 2.03847e-10 1.79174 2.03847e-10 4.00195V30.0147Z" fill="url(#paint0_linear)"/>
<defs>
<linearGradient id="paint0_linear" x1="1.91307" y1="1.28851" x2="25.8255" y2="38.9273" gradientUnits="userSpaceOnUse">
<stop stop-color="#47D3FF"/>
<stop offset="1" stop-color="#2195EA"/>
</linearGradient>
</defs>
</svg>
