<?xml version="1.0" encoding="UTF-8"?>
<!DOCTYPE svg PUBLIC "-//W3C//DTD SVG 1.1//EN" "http://www.w3.org/Graphics/SVG/1.1/DTD/svg11.dtd">
<!-- Creator: CorelDRAW X7 -->
<svg xmlns="http://www.w3.org/2000/svg" xml:space="preserve" version="1.1" style="shape-rendering:geometricPrecision; text-rendering:geometricPrecision; image-rendering:optimizeQuality; fill-rule:evenodd; clip-rule:evenodd"
viewBox="0 0 22327 11313"
 xmlns:xlink="http://www.w3.org/1999/xlink">
 <defs>
  <style type="text/css">
   <![CDATA[
    .fil11 {fill:#FEFEFE}
    .fil9 {fill:#F5B06F}
    .fil12 {fill:#D7EEFC}
    .fil2 {fill:#B3D493}
    .fil10 {fill:#A2D4C6}
    .fil0 {fill:#78C5EF}
    .fil1 {fill:#6B88B1}
    .fil13 {fill:#6B88B1;fill-rule:nonzero}
    .fil3 {fill:#6B88B1;fill-rule:nonzero}
    .fil4 {fill:#A8C1C6;fill-rule:nonzero}
    .fil6 {fill:#DBA752;fill-rule:nonzero}
    .fil5 {fill:#DBF7FF;fill-rule:nonzero}
    .fil7 {fill:#FDCA6B;fill-rule:nonzero}
    .fil8 {fill:#FFE6BF;fill-rule:nonzero}
   ]]>
  </style>
 </defs>
 <g id="Слой_x0020_1">
  <metadata id="CorelCorpID_0Corel-Layer"/>
  <path class="fil0" d="M5608 5709c0,-1343 1089,-2432 2432,-2432 1343,0 2431,1089 2431,2432 0,1343 -1088,2431 -2431,2431 -1343,0 -2432,-1088 -2432,-2431z"/>
  <path class="fil1" d="M5608 5709l53 0c0,-658 266,-1252 697,-1683 430,-430 1025,-696 1682,-696 657,0 1251,266 1682,696 430,431 697,1025 697,1683 0,657 -267,1251 -697,1682 -431,430 -1025,696 -1682,696 -657,0 -1252,-266 -1682,-696 -431,-431 -697,-1025 -697,-1682l-53 0 -53 0c0,1372 1112,2484 2485,2484 1372,0 2484,-1112 2484,-2484 0,-1373 -1112,-2485 -2484,-2485 -1373,0 -2485,1112 -2485,2485l53 0z"/>
  <path class="fil2" d="M10471 5709c0,-1343 -1088,-2432 -2431,-2432 -44,0 -87,1 -130,3 -207,368 -278,758 -409,1154 116,-52 264,-15 343,83 80,99 84,252 9,354 -94,129 -271,158 -413,233 -252,133 -395,445 -331,723 12,54 32,107 36,163 5,48 -3,97 6,145 22,120 143,203 264,214 121,11 241,-36 347,-94 142,-79 295,-184 452,-144 137,35 246,178 386,156 101,-15 166,-110 238,-181 73,-72 201,-121 270,-46 113,158 169,356 157,550 -5,71 -18,144 -2,213 17,69 75,136 147,131 163,-11 153,-329 316,-341 89,-7 151,97 143,186 -8,89 -62,166 -101,246 -68,140 -35,223 51,336 434,-406 652,-1070 652,-1652z"/>
  <path class="fil1" d="M10471 5709l53 0c0,-1373 -1112,-2485 -2484,-2485 -45,0 -89,1 -133,4 -18,0 -35,11 -43,26 -106,189 -177,382 -238,577 -60,194 -111,390 -176,586 -6,20 -1,42 15,56 15,14 38,17 57,9 28,-13 59,-19 91,-19 73,0 147,33 190,88 33,40 51,95 51,149 0,51 -15,101 -44,140 -19,27 -43,49 -71,68 -43,29 -95,52 -151,74 -56,23 -115,45 -173,75 -115,61 -209,156 -273,267 -65,111 -101,238 -101,367 0,50 5,99 16,148 14,59 32,109 36,155 1,11 1,22 1,34 0,14 0,29 0,45 0,22 0,46 5,71 13,75 58,137 114,180 57,44 126,71 197,78 14,1 28,1 41,1 123,0 237,-47 337,-102 62,-34 123,-71 183,-100 60,-28 117,-46 171,-46 20,0 39,3 59,8 51,12 105,48 164,85 30,18 61,36 95,50 33,14 71,24 111,24 12,0 25,-1 37,-3 32,-5 62,-16 88,-31 39,-22 70,-51 99,-81 29,-29 55,-59 80,-84 20,-18 45,-36 70,-49 26,-12 52,-19 73,-19 11,0 21,2 29,5 8,4 15,8 22,16l39 -36 -43 31c96,134 149,300 149,465 0,17 -1,34 -2,51 -3,43 -10,90 -10,140 0,29 2,58 10,88 10,43 32,84 64,116 16,16 34,30 56,40 21,10 45,16 71,16 3,0 6,0 10,0 29,-2 56,-11 78,-25 40,-25 65,-61 86,-97 30,-54 53,-114 78,-156 12,-21 25,-37 37,-47 12,-10 23,-15 38,-16l4 0c10,0 19,2 28,8 14,8 28,23 39,43 10,20 16,44 16,66 0,4 0,8 -1,11 -3,35 -16,71 -34,108 -17,38 -40,77 -61,119 -28,57 -42,109 -42,160 0,43 10,84 28,122 18,38 42,73 70,110 9,12 23,20 38,21 14,1 29,-4 40,-14 224,-210 391,-485 502,-781 112,-295 167,-613 167,-910l-53 0 -52 0c0,284 -54,590 -161,873 -106,284 -266,544 -475,740l36 39 42 -32c-26,-34 -45,-64 -58,-91 -12,-27 -18,-51 -18,-77 0,-31 8,-66 31,-113 18,-38 41,-77 62,-120 20,-43 39,-90 44,-144 0,-7 1,-14 1,-21 0,-53 -18,-105 -49,-147 -15,-21 -35,-40 -58,-54 -24,-14 -52,-22 -82,-22 -4,0 -8,0 -12,0 -29,2 -56,12 -78,26 -39,25 -64,61 -85,97 -31,55 -53,114 -78,156 -12,21 -25,37 -37,47 -12,10 -22,14 -38,15l-3 0c-9,0 -17,-2 -26,-6 -13,-6 -27,-17 -38,-33 -11,-15 -20,-33 -24,-51 -5,-20 -7,-41 -7,-64 0,-40 6,-85 10,-133 1,-19 1,-39 1,-58 0,-187 -59,-374 -168,-527l-4 -5c-18,-19 -39,-33 -61,-42 -22,-9 -45,-12 -68,-12 -42,0 -82,11 -118,29 -37,18 -71,42 -99,69 -39,38 -73,79 -107,110 -17,16 -34,29 -51,38 -17,10 -33,16 -51,19 -7,1 -14,1 -21,1 -23,0 -46,-5 -71,-16 -37,-15 -78,-42 -123,-69 -44,-28 -93,-56 -150,-71 -28,-7 -57,-11 -85,-11 -77,1 -149,25 -216,57 -67,31 -130,70 -189,102 -92,51 -191,90 -286,90 -10,0 -21,-1 -31,-2 -50,-4 -102,-25 -142,-55 -40,-31 -67,-71 -75,-116 -3,-15 -4,-33 -4,-52 0,-14 1,-29 1,-45 0,-14 -1,-28 -2,-43 -6,-65 -26,-120 -38,-170 -9,-40 -14,-82 -14,-124 0,-109 31,-219 87,-314 56,-95 136,-176 232,-226 65,-35 144,-61 221,-95 38,-17 77,-36 113,-61 35,-25 69,-55 97,-93 43,-59 63,-131 63,-202 0,-76 -24,-154 -73,-216 -67,-82 -170,-126 -273,-126 -45,0 -91,8 -134,27l22 49 50 16c66,-200 117,-397 176,-588 60,-191 128,-377 229,-556l-46 -26 3 53c42,-2 84,-3 127,-3 657,0 1251,266 1682,696 430,431 697,1025 697,1683l52 0z"/>
  <path class="fil1" d="M9620 3861c364,426 585,977 585,1581 0,1343 -1089,2432 -2432,2432 -604,0 -1155,-221 -1581,-585 447,521 1108,851 1848,851 1343,0 2431,-1088 2431,-2431 0,-740 -330,-1402 -851,-1848z"/>
  <path class="fil1" d="M9620 3861l-40 35c356,416 572,955 572,1546 0,657 -266,1251 -697,1682 -430,431 -1025,697 -1682,697 -591,0 -1130,-216 -1546,-572 -21,-18 -52,-17 -72,3 -19,19 -21,51 -3,72 456,532 1132,869 1888,869 1372,0 2484,-1112 2484,-2484 0,-756 -337,-1432 -869,-1888 -21,-18 -53,-17 -72,3 -20,19 -21,51 -3,72l40 -35 -34 41c509,436 833,1083 833,1807 0,657 -267,1251 -697,1682 -431,430 -1025,696 -1682,696 -724,0 -1371,-323 -1807,-832l-41 34 -34 40c434,372 998,598 1615,598 1372,0 2485,-1113 2485,-2485 0,-617 -225,-1181 -598,-1615l-40 34 -34 41 34 -41z"/>
  <path class="fil1" d="M9117 5823l6 -31 -7 31 1 0 6 -31 -7 31 2 0c11,3 63,17 113,56 25,19 51,44 72,76 21,33 38,73 47,124 5,28 32,48 61,42 29,-5 48,-32 43,-61 -12,-70 -38,-128 -70,-173 -48,-69 -109,-111 -157,-135 -49,-25 -86,-32 -89,-33 -28,-6 -56,12 -62,41 -6,29 12,57 41,63z"/>
  <path class="fil1" d="M8184 5029c1,-2 23,-40 46,-96 22,-57 45,-132 45,-213 0,-49 -9,-101 -35,-150 -14,-26 -46,-35 -71,-22 -26,14 -36,46 -22,72 15,29 22,63 22,100 0,60 -18,125 -38,174 -10,25 -19,45 -27,59 -3,8 -6,13 -8,17l-2 4 -1 1 0 0 15 9 -15 -9 0 0 15 9 -15 -9c-15,25 -7,57 19,72 25,15 57,7 72,-18z"/>
  <path class="fil1" d="M14913 1665l-279 0c-29,0 -53,24 -53,53 0,29 24,53 53,53l279 0c29,0 53,-24 53,-53 0,-29 -24,-53 -53,-53zm-558 0l-279 0c-29,0 -53,24 -53,53 0,29 24,53 53,53l279 0c29,0 53,-24 53,-53 0,-29 -24,-53 -53,-53zm-558 0l-279 0c-29,0 -53,24 -53,53 0,29 24,53 53,53l279 0c29,0 53,-24 53,-53 0,-29 -24,-53 -53,-53zm-557 0l-279 0c-30,0 -53,24 -53,53 0,29 23,53 53,53l279 0c29,0 52,-24 52,-53 0,-29 -23,-53 -52,-53zm-558 0l-279 0c-29,0 -53,24 -53,53 0,29 24,53 53,53l279 0c29,0 53,-24 53,-53 0,-29 -24,-53 -53,-53zm-558 0l-279 0c-29,0 -53,24 -53,53 0,29 24,53 53,53l279 0c29,0 53,-24 53,-53 0,-29 -24,-53 -53,-53zm-558 0l-101 0c-61,0 -121,3 -181,7 -29,2 -51,27 -49,57 2,29 27,51 57,48 57,-4 115,-6 173,-6l101 0c30,0 53,-24 53,-53 0,-29 -23,-53 -53,-53zm-564 44c-95,18 -187,41 -277,70 -27,9 -43,38 -34,66 9,28 38,43 66,35 86,-28 174,-50 264,-67 29,-6 48,-33 42,-62 -5,-29 -33,-47 -61,-42zm-543 171c-87,39 -171,83 -252,132 -26,15 -34,47 -19,73 15,25 48,33 73,18 78,-47 158,-89 242,-126 26,-12 38,-44 26,-70 -12,-27 -43,-39 -70,-27zm-488 292c-75,58 -147,120 -215,186 -21,21 -22,54 -2,75 21,21 54,22 75,1 65,-63 134,-122 206,-178 24,-18 28,-51 10,-74 -18,-23 -51,-28 -74,-10zm-408 396c-60,73 -116,150 -167,231 -16,24 -9,57 16,73 25,15 57,8 73,-16 49,-77 103,-151 160,-221 18,-23 15,-56 -8,-74 -22,-19 -56,-16 -74,7zm-306 479c-42,85 -78,173 -110,263 -10,27 5,57 32,67 28,10 58,-5 68,-32 30,-87 65,-171 105,-252 13,-26 2,-58 -25,-71 -26,-12 -58,-1 -70,25zm-188 537c-21,91 -36,185 -46,281 -3,29 18,55 47,58 29,3 55,-18 58,-47 10,-92 24,-182 44,-269 6,-29 -11,-57 -40,-64 -29,-6 -57,12 -63,41zm-59 564l0 279c0,29 24,53 53,53 29,0 53,-24 53,-53l0 -279c0,-29 -24,-53 -53,-53 -29,0 -53,24 -53,53z"/>
  <path class="fil1" d="M2516 2487l283 0c29,0 53,-24 53,-53 0,-29 -24,-53 -53,-53l-283 0c-29,0 -52,24 -52,53 0,29 23,53 52,53zm565 0l282 0c29,0 53,-24 53,-53 0,-29 -24,-53 -53,-53l-282 0c-29,0 -53,24 -53,53 0,29 24,53 53,53zm564 0l283 0c29,0 52,-24 52,-53 0,-29 -23,-53 -52,-53l-283 0c-29,0 -53,24 -53,53 0,29 24,53 53,53zm565 0l282 0c29,0 53,-24 53,-53 0,-29 -24,-53 -53,-53l-282 0c-29,0 -53,24 -53,53 0,29 24,53 53,53zm564 0l282 0c30,0 53,-24 53,-53 0,-29 -23,-53 -53,-53l-282 0c-29,0 -53,24 -53,53 0,29 24,53 53,53zm565 0l282 0c29,0 53,-24 53,-53 0,-29 -24,-53 -53,-53l-282 0c-30,0 -53,24 -53,53 0,29 23,53 53,53zm564 0l282 0c30,0 53,-24 53,-53 0,-29 -23,-53 -53,-53l-282 0c-29,0 -53,24 -53,53 0,29 24,53 53,53zm565 0l282 0c29,0 53,-24 53,-53 0,-29 -24,-53 -53,-53l-282 0c-30,0 -53,24 -53,53 0,29 23,53 53,53zm564 0l175 0c34,0 68,2 102,5 29,3 55,-19 58,-48 3,-29 -19,-55 -48,-58 -37,-3 -74,-5 -112,-5l-175 0c-29,0 -53,24 -53,53 0,29 24,53 53,53zm538 64c85,31 165,73 238,124 24,16 57,10 74,-14 16,-24 10,-57 -14,-73 -80,-56 -168,-102 -261,-136 -28,-10 -58,4 -68,31 -10,28 4,58 31,68zm437 303c58,68 108,143 148,224 13,26 45,37 71,24 26,-13 37,-45 24,-71 -44,-89 -99,-172 -163,-246 -19,-22 -52,-25 -74,-6 -22,20 -25,53 -6,75zm235 477c13,69 21,139 21,212l0 58c0,29 23,53 53,53 29,0 53,-24 53,-53l0 -58c0,-80 -8,-158 -24,-233 -6,-29 -33,-47 -62,-41 -29,5 -47,33 -41,62zm21 552l0 156c0,29 23,52 53,52 29,0 53,-23 53,-52l0 -156c0,-29 -24,-53 -53,-53 -29,0 -53,24 -53,53z"/>
  <g id="_1071244488">
   <g>
    <g>
     <path class="fil3" d="M12268 9749l-709 0c-116,0 -210,-93 -210,-209l0 -349 1128 0 0 349c0,116 -93,209 -209,209z"/>
     <path class="fil3" d="M12268 9802l-709 0c-145,0 -263,-118 -263,-262l0 -401 1234 0 0 401c0,144 -118,262 -262,262zm-866 -558l0 0 0 296c0,86 70,157 157,157l709 0c86,0 157,-71 157,-157l0 -296 -1023 0z"/>
    </g>
    <g>
     <path class="fil3" d="M15385 9749l-709 0c-116,0 -210,-93 -210,-209l0 -349 1129 0 0 349c0,116 -94,209 -210,209z"/>
     <path class="fil3" d="M15385 9802l-709 0c-145,0 -262,-118 -262,-262l0 -401 1234 0 0 401c0,144 -118,262 -263,262zm-866 -558l0 0 0 296c0,86 70,157 157,157l709 0c87,0 157,-71 157,-157l0 -296 -1023 0z"/>
    </g>
   </g>
   <path class="fil4" d="M15799 2918l-4655 0c-508,0 -920,412 -920,920l0 4655c0,508 412,920 920,920l4655 0c508,0 920,-412 920,-920l0 -4655c0,-508 -412,-920 -920,-920z"/>
   <path class="fil3" d="M15799 9466l-4655 0c-536,0 -972,-436 -972,-973l0 -4655c0,-536 436,-972 972,-972l4655 0c537,0 973,436 973,972l0 4655c0,537 -436,973 -973,973zm-4655 -6495l0 0c-478,0 -867,389 -867,867l0 4655c0,479 389,868 867,868l4655 0c479,0 868,-389 868,-868l0 -4655c0,-478 -389,-867 -868,-867l-4655 0z"/>
   <path class="fil5" d="M15260 3670l-3577 0c-390,0 -707,317 -707,707l0 3577c0,391 317,707 707,707l3577 0c391,0 707,-316 707,-707l0 -3577c0,-390 -316,-707 -707,-707z"/>
   <path class="fil3" d="M15260 8714l-3577 0c-419,0 -759,-341 -759,-760l0 -3577c0,-419 340,-759 759,-759l3577 0c419,0 760,340 760,759l0 3577c0,419 -341,760 -760,760zm-3577 -4991l0 0c-360,0 -654,294 -654,654l0 3577c0,361 294,655 654,655l3577 0c361,0 655,-294 655,-655l0 -3577c0,-360 -294,-654 -655,-654l-3577 0z"/>
   <path class="fil6" d="M12829 6166c0,407 -330,737 -737,737 -407,0 -737,-330 -737,-737 0,-407 330,-737 737,-737 407,0 737,330 737,737z"/>
   <path class="fil3" d="M12092 6956c-436,0 -790,-355 -790,-790 0,-436 354,-790 790,-790 435,0 790,354 790,790 0,435 -355,790 -790,790zm0 -1474l0 0c-377,0 -684,306 -684,684 0,377 307,684 684,684 377,0 684,-307 684,-684 0,-378 -307,-684 -684,-684z"/>
   <g>
    <g>
     <g>
      <g>
       <path class="fil3" d="M12092 5736c-29,0 -53,-23 -53,-52l0 -238 106 0 0 238c0,29 -24,52 -53,52z"/>
      </g>
     </g>
     <g>
      <g>
       <path class="fil3" d="M12092 6596c29,0 53,23 53,52l0 237 -106 0 0 -237c0,-29 24,-52 53,-52z"/>
      </g>
     </g>
    </g>
    <g>
     <g>
      <g>
       <path class="fil3" d="M12522 6166c0,-29 23,-53 52,-53l237 0 0 106 -237 0c-29,0 -52,-24 -52,-53z"/>
      </g>
     </g>
     <g>
      <g>
       <path class="fil3" d="M11662 6166c0,29 -23,53 -52,53l-238 0 0 -106 238 0c29,0 52,24 52,53z"/>
      </g>
     </g>
    </g>
    <g>
     <g>
      <g>
       <path class="fil3" d="M12396 5862c-21,-21 -21,-54 0,-74l167 -168 75 74 -168 168c-20,21 -54,21 -74,0z"/>
      </g>
     </g>
     <g>
      <g>
       <path class="fil3" d="M11788 6470c21,20 21,54 0,74l-168 168 -74 -75 168 -167c20,-21 53,-21 74,0z"/>
      </g>
     </g>
    </g>
    <g>
     <g>
      <g>
       <path class="fil3" d="M12396 6470c20,-21 54,-21 74,0l168 167 -75 75 -167 -168c-21,-20 -21,-54 0,-74z"/>
      </g>
     </g>
     <g>
      <g>
       <path class="fil3" d="M11788 5862c-21,21 -54,21 -74,0l-168 -168 74 -74 168 168c21,20 21,53 0,74z"/>
      </g>
     </g>
    </g>
   </g>
   <g>
    <path class="fil7" d="M12494 6166c0,222 -180,402 -402,402 -222,0 -402,-180 -402,-402 0,-222 180,-402 402,-402 222,0 402,180 402,402z"/>
   </g>
   <path class="fil4" d="M16005 4447l-76 0c-69,0 -126,57 -126,126l0 738c0,70 57,126 126,126l76 0c70,0 126,-56 126,-126l0 -738c0,-69 -56,-126 -126,-126z"/>
   <path class="fil3" d="M16005 5490l-76 0c-98,0 -178,-80 -178,-179l0 -738c0,-98 80,-178 178,-178l76 0c99,0 179,80 179,178l0 738c0,99 -80,179 -179,179zm-76 -990l0 0c-40,0 -73,33 -73,73l0 738c0,40 33,73 73,73l76 0c41,0 74,-33 74,-73l0 -738c0,-40 -33,-73 -74,-73l-76 0z"/>
   <g>
    <polygon class="fil3" points="15803,4751 16131,4751 "/>
    <polygon class="fil3" points="16131,4804 15803,4804 15803,4699 16131,4699 "/>
   </g>
   <g>
    <polygon class="fil3" points="15803,5133 16131,5133 "/>
    <polygon class="fil3" points="16131,5186 15803,5186 15803,5080 16131,5080 "/>
   </g>
   <path class="fil4" d="M16005 6886l-76 0c-69,0 -126,56 -126,126l0 738c0,69 57,126 126,126l76 0c70,0 126,-57 126,-126l0 -738c0,-70 -56,-126 -126,-126z"/>
   <path class="fil3" d="M16005 7928l-76 0c-98,0 -178,-80 -178,-178l0 -738c0,-99 80,-179 178,-179l76 0c99,0 179,80 179,179l0 738c0,98 -80,178 -179,178zm-76 -989l0 0c-40,0 -73,33 -73,73l0 738c0,40 33,73 73,73l76 0c41,0 74,-33 74,-73l0 -738c0,-40 -33,-73 -74,-73l-76 0z"/>
   <polygon class="fil8" points="15803,7190 16131,7190 "/>
   <polygon class="fil3" points="16131,7243 15803,7243 15803,7137 16131,7137 "/>
   <polygon class="fil8" points="15803,7572 16131,7572 "/>
   <polygon class="fil3" points="16131,7624 15803,7624 15803,7519 16131,7519 "/>
  </g>
  <path class="fil1" d="M1724 5860l280 645c12,27 43,39 69,28 27,-12 40,-43 28,-70l-280 -645c-12,-27 -43,-39 -70,-27 -27,11 -39,42 -27,69z"/>
  <path class="fil1" d="M2302 5864l342 645c14,26 46,36 72,22 25,-14 35,-46 21,-72l-342 -645c-13,-26 -46,-35 -71,-22 -26,14 -36,46 -22,72z"/>
  <path class="fil1" d="M2880 5867l404 645c16,25 48,33 73,17 25,-16 32,-48 17,-73l-405 -645c-15,-25 -48,-32 -73,-17 -24,16 -32,48 -16,73z"/>
  <path class="fil1" d="M3458 5870l466 645c18,24 51,29 74,12 24,-17 29,-50 12,-74l-467 -645c-17,-24 -50,-29 -73,-12 -24,17 -29,50 -12,74z"/>
  <path class="fil9" d="M4019 4261l-1912 886c-195,90 -317,269 -317,465l0 2743c0,907 494,1757 1324,2281l836 528c205,129 478,129 682,0l836 -528c831,-524 1325,-1374 1325,-2281l0 -2743c0,-196 -123,-375 -318,-465l-1912 -886c-170,-79 -373,-79 -544,0z"/>
  <path class="fil1" d="M4019 4261l-22 -48 -1912 886c-106,49 -193,122 -253,211 -61,89 -95,193 -95,302l0 2743c0,926 504,1793 1349,2326l836 527c111,71 240,105 369,105 129,0 258,-34 369,-105l836 -527c845,-533 1350,-1400 1350,-2326l0 -2743c0,-109 -35,-213 -95,-302 -61,-89 -148,-162 -253,-211l-1912 -886c-93,-43 -194,-64 -295,-64 -101,0 -201,21 -294,64l22 48 22 48c78,-36 164,-54 250,-54 86,0 172,18 250,54l1912 886c89,41 161,102 210,175 50,72 77,155 77,242l0 2743c0,887 -483,1721 -1300,2236l-836 528c-93,59 -203,88 -313,88 -110,0 -219,-29 -312,-88l-836 -528c-817,-515 -1300,-1349 -1300,-2236l0 -2743c0,-87 27,-170 76,-242 49,-73 121,-134 210,-175l1912 -886 -22 -48z"/>
  <path class="fil10" d="M4291 10796c-34,0 -67,-9 -93,-25l-836 -528c-693,-438 -1108,-1143 -1108,-1888l0 -2743c0,-5 12,-27 48,-44l1912 -885c23,-11 50,-17 77,-17 28,0 54,6 77,17l1912 885c37,17 48,39 48,44l0 2743c0,745 -414,1450 -1108,1888l-836 528c-25,16 -58,25 -93,25z"/>
  <path class="fil1" d="M4291 10796l0 -53c-25,0 -49,-7 -65,-17l-835 -528c-681,-429 -1084,-1118 -1084,-1843l0 -2743 -45 0 43 15c1,-3 2,-5 2,-15l-45 0 43 15 -18 -6 16 10c0,0 0,0 2,-4l-18 -6 16 10c0,0 6,-8 22,-15l1912 -885c15,-7 34,-12 54,-12 20,0 40,5 55,12l0 0 1912 885c12,6 18,11 21,14l1 1 0 0 13 -9 -15 7 2 2 13 -9 -15 7 34 -14 -35 9 1 5 34 -14 -35 9 45 -12 -47 0c0,6 1,10 2,12l45 -12 -47 0 0 2743c0,725 -403,1414 -1083,1843l-836 528c-15,10 -39,17 -65,17l0 53 0 53c44,0 86,-11 122,-33l835 -528c708,-446 1133,-1168 1133,-1933l0 -2743c0,-11 -2,-16 -4,-20 -2,-8 -6,-14 -10,-20 -12,-18 -33,-37 -65,-52l-1912 -885 0 0c-30,-15 -64,-21 -99,-21 -34,0 -68,6 -99,21l-1912 885c-24,11 -42,25 -55,39 -6,7 -11,14 -15,21 -2,4 -3,7 -5,12 -1,4 -3,9 -4,20l0 2743c0,765 426,1487 1133,1933l836 528c36,22 78,33 121,33l0 -53z"/>
  <polygon class="fil11" points="5633,6516 3898,8355 3104,7414 3856,7728 "/>
  <path class="fil3" d="M5668 6551l-1734 1838c-18,20 -50,21 -70,2 -1,-1 -3,-2 -4,-4l0 0 -794 -940c-18,-21 -15,-53 6,-71 14,-12 34,-15 51,-8l728 303 1754 -1197c23,-15 54,-9 69,13 14,21 11,47 -6,64zm-1768 1729l1381 -1464 -1396 953c-13,9 -31,12 -48,5l-562 -234 625 740z"/>
  <path class="fil1" d="M5411 9609c-115,116 -246,222 -393,314l-301 190c-24,16 -32,49 -16,73 16,25 48,33 73,17l301 -190c153,-97 291,-208 411,-330 21,-21 21,-55 0,-75 -21,-21 -54,-20 -75,1z"/>
  <path class="fil1" d="M3960 5217l331 -153 286 132c26,12 58,1 70,-26 12,-26 1,-58 -26,-70l-307 -143c-15,-6 -31,-6 -45,0l-353 164c-27,12 -38,44 -26,70 13,27 44,38 70,26z"/>
  <path class="fil1" d="M3564 9923c-585,-369 -932,-956 -932,-1568 0,-29 -23,-53 -52,-53 -30,0 -53,24 -53,53 0,653 369,1272 981,1658 24,16 57,8 73,-17 15,-24 8,-57 -17,-73z"/>
  <polygon class="fil11" points="2079,2159 53,2159 2228,2653 "/>
  <path class="fil1" d="M2040 2212l-1515 0 1626 369 -111 -369 90 -68 149 494c5,18 1,37 -12,51 -13,14 -32,20 -50,15l-2176 -494c-26,-6 -44,-30 -41,-57 3,-27 26,-47 53,-47l2026 0c24,0 44,15 51,38l-90 68z"/>
  <polygon class="fil11" points="2079,2653 1922,2810 53,2159 "/>
  <path class="fil1" d="M2079 2653l38 37 -158 157c-14,15 -35,20 -54,13l-1869 -651c-27,-10 -42,-38 -34,-65 8,-27 36,-43 63,-37l2027 494c18,5 33,19 38,38 5,18 0,38 -13,51l-38 -37 -104 29 -866 -211 799 278 134 -134 -67 67 104 -29 0 0z"/>
  <path class="fil1" d="M17190 7805l974 0c29,0 53,-23 53,-53 0,-29 -24,-53 -53,-53l-974 0c-29,0 -53,24 -53,53 0,30 24,53 53,53z"/>
  <path class="fil1" d="M18829 7805l3445 0c29,0 53,-23 53,-53 0,-29 -24,-53 -53,-53l-3445 0c-29,0 -53,24 -53,53 0,30 24,53 53,53z"/>
  <path class="fil1" d="M234 6816l974 0c29,0 53,-24 53,-53 0,-30 -24,-53 -53,-53l-974 0c-29,0 -53,23 -53,53 0,29 24,53 53,53z"/>
  <g id="_1071252768">
   <path class="fil12" d="M11028 559c675,-675 1770,-675 2446,0 675,676 675,1771 0,2446 -676,675 -1771,675 -2446,0 -675,-675 -675,-1770 0,-2446z"/>
   <path class="fil1" d="M11028 559l37 38c328,-328 757,-491 1186,-491 429,0 858,163 1185,491 328,327 491,756 491,1185 0,429 -163,858 -491,1186 -327,327 -756,491 -1185,491 -429,0 -858,-164 -1186,-491 -327,-328 -491,-757 -491,-1186 0,-429 164,-858 491,-1185l-37 -38 -37 -37c-348,348 -522,804 -522,1260 0,456 174,913 522,1260 347,348 804,523 1260,522 456,1 912,-174 1260,-522 348,-347 522,-804 522,-1260 0,-456 -174,-912 -522,-1260 -348,-348 -804,-522 -1260,-522 -456,0 -913,174 -1260,522l37 37z"/>
   <path class="fil1" d="M13212 2743l37 38c264,-264 413,-607 413,-955 0,-374 -125,-754 -413,-1042 -275,-275 -637,-413 -998,-413 -361,0 -723,138 -998,413 -276,276 -414,637 -414,999 0,361 138,722 414,998 288,288 668,413 1042,413 348,0 691,-150 954,-413l-37 -38 -37 -37c-246,245 -563,382 -880,382 -351,0 -702,-117 -967,-382 -255,-255 -383,-589 -383,-923 0,-335 128,-669 383,-924 255,-255 589,-382 923,-382 335,0 668,127 924,382 265,265 381,616 381,967 0,318 -136,635 -381,880l37 37z"/>
   <path class="fil1" d="M11237 2169c94,250 276,469 530,606 26,14 58,4 72,-21 14,-26 4,-58 -22,-72 -231,-124 -395,-323 -481,-551 -10,-27 -41,-41 -68,-30 -28,10 -41,40 -31,68z"/>
   <path class="fil1" d="M11998 2869c80,23 161,37 242,42 29,2 55,-21 56,-50 2,-29 -20,-54 -49,-56 -74,-4 -147,-17 -220,-38 -28,-8 -57,9 -65,37 -8,28 8,57 36,65z"/>
   <path class="fil13" d="M12984 2601c-26,17 -61,6 -76,-20 -29,-46 -57,-91 -85,-137 -59,-98 -119,-196 -180,-294 -54,-90 -109,-179 -163,-268 -11,-17 -22,-33 -33,-50l-148 0 0 291c0,29 -23,53 -53,53 -29,0 -53,-24 -53,-53l0 -291 -154 0c0,113 0,228 0,342 0,91 0,181 0,272 0,37 0,72 0,109 0,28 -26,54 -56,54 -31,0 -55,-26 -55,-54 0,-37 0,-74 0,-109 0,-91 0,-183 0,-272 0,-120 0,-238 0,-355 0,-117 0,-234 0,-351 0,-91 0,-182 0,-270 0,-37 0,-72 0,-109 0,-28 24,-54 55,-54 30,0 56,26 56,54 0,37 0,74 0,109 0,90 0,181 0,270 0,85 0,169 0,253l154 0 0 -295c0,-30 24,-53 53,-53 30,0 53,23 53,53l0 295 153 0c24,-39 47,-80 74,-119 63,-99 123,-199 186,-296 46,-76 94,-150 139,-223 5,-7 9,-13 13,-20 15,-26 48,-37 74,-21 26,15 37,50 20,76 -31,49 -61,99 -92,149 -63,97 -125,197 -186,296 -46,72 -91,143 -135,215 22,37 44,74 67,110 59,98 120,197 181,294 54,90 108,179 162,268 18,26 33,50 48,76 15,26 5,61 -19,75z"/>
  </g>
  <path class="fil1" d="M12223 6037c0,-73 -58,-132 -131,-132 -73,0 -132,59 -132,132 0,54 33,100 79,120l-79 269 132 0 131 0 -78 -269c46,-20 78,-66 78,-120z"/>
  <path class="fil1" d="M17573 6816l2477 0c29,0 53,-24 53,-53 0,-30 -24,-53 -53,-53l-2477 0c-29,0 -53,23 -53,53 0,29 24,53 53,53z"/>
  <polygon class="fil11" points="16738,1397 18765,1397 16589,1891 "/>
  <path class="fil1" d="M16778 1450l1515 0 -1627 369 112 -369 -90 -68 -150 494c-5,18 0,37 12,51 13,14 32,20 51,15l2175 -494c27,-5 44,-30 41,-57 -3,-27 -25,-47 -52,-47l-2027 0c-23,0 -44,15 -50,38l90 68z"/>
  <polygon class="fil11" points="16738,1891 16895,2048 18765,1397 "/>
  <path class="fil1" d="M16738 1891l-37 37 157 158c14,14 36,19 55,12l1869 -651c27,-9 41,-38 33,-65 -8,-27 -36,-43 -63,-37l-2026 494c-19,5 -34,19 -39,38 -5,18 0,38 14,51l37 -37 104 29 866 -211 -799 278 -133 -134 66 67 -104 -29 0 0z"/>
  <polygon class="fil9" points="16349,2109 15694,2109 "/>
  <path class="fil1" d="M16349 2162l-655 0c-29,0 -53,-24 -53,-53 0,-29 24,-53 53,-53l655 0c29,0 52,24 52,53 0,29 -23,53 -52,53z"/>
  <polygon class="fil9" points="16113,1715 15459,1715 "/>
  <path class="fil1" d="M16113 1768l-654 0c-29,0 -53,-24 -53,-53 0,-29 24,-53 53,-53l654 0c29,0 53,24 53,53 0,29 -24,53 -53,53z"/>
  <polygon class="fil9" points="16349,1320 15694,1320 "/>
  <path class="fil1" d="M16349 1373l-655 0c-29,0 -53,-23 -53,-53 0,-29 24,-53 53,-53l655 0c29,0 52,24 52,53 0,30 -23,53 -52,53z"/>
  <g id="_1071256008">
   <path class="fil12" d="M3721 1538c510,-509 1336,-509 1845,0 509,509 509,1335 0,1844 -509,510 -1335,510 -1845,0 -509,-509 -509,-1335 0,-1844z"/>
   <g>
    <path class="fil1" d="M5360 3177l-37 -38c-190,190 -440,281 -690,281 -242,0 -483,-96 -668,-281 -186,-185 -281,-426 -281,-668 0,-250 91,-500 281,-690 190,-190 439,-281 689,-281 242,0 483,96 669,281 186,187 281,430 281,674 0,248 -93,495 -281,684l37 38 38 37c209,-210 312,-485 312,-759 0,-271 -106,-542 -312,-749 -205,-205 -474,-312 -744,-312 -275,0 -553,101 -764,312 -211,212 -312,489 -312,765 0,270 107,538 312,743 205,205 473,312 743,312 275,0 553,-101 765,-312l-38 -37zm-1604 -1604l-37 -38c-256,255 -384,591 -384,925 0,335 128,670 384,925 255,256 590,384 925,384 334,0 669,-128 925,-384 255,-255 383,-590 383,-925 0,-334 -128,-670 -383,-925 -256,-255 -591,-383 -925,-383 -335,0 -670,128 -925,383l37 38 37 37c235,-235 543,-352 851,-352 308,0 615,117 850,352 235,235 352,542 352,850 0,308 -117,616 -352,851 -235,234 -542,352 -850,352 -308,0 -616,-118 -851,-352 -235,-235 -352,-543 -352,-851 0,-308 117,-615 352,-850l-37 -37z"/>
    <path class="fil13" d="M5134 3090c-1,1 -2,1 -3,1l0 0c-12,8 -26,9 -39,5 -12,-3 -23,-11 -31,-22l0 0c-1,-1 -1,-2 -2,-3l0 0 -2 -4c-25,-40 -48,-78 -65,-106l0 0c-22,-37 -47,-76 -71,-117 -30,-47 -51,-82 -73,-117l0 0 -63 -104 0 0 -67 -110 0 0c-4,-6 -8,-12 -13,-19l0 0c-3,-5 -7,-11 -10,-16l-103 0 0 223 0 0c0,14 -5,27 -15,36l0 0c-9,10 -22,16 -37,16l0 0c-14,0 -27,-6 -37,-16l0 0c-9,-9 -15,-22 -15,-36l0 -223 -103 0 0 263 0 217 0 87c0,14 -7,27 -17,37l0 0c-10,10 -23,16 -38,16 -15,0 -28,-6 -37,-15 -10,-10 -16,-24 -16,-38l0 -87 0 -217 0 -283 0 -280 0 -216 0 -86c0,-14 6,-28 16,-38l0 0c9,-9 22,-16 37,-16 15,0 28,7 38,16 10,10 17,24 17,38l0 86 0 216 0 192 103 0 0 -226c0,-14 6,-28 15,-37 10,-9 23,-15 37,-15 15,0 28,6 37,15 10,10 15,23 15,37l0 226 107 0 14 -24c14,-22 27,-45 42,-67l0 0c18,-28 37,-59 56,-90 31,-48 61,-97 92,-146l0 0c23,-37 47,-75 71,-113 14,-22 28,-44 40,-65l1 0 10 -15c7,-13 19,-22 32,-26 13,-4 27,-2 40,5l0 0 3 2 0 0c11,7 19,19 23,31l0 0c3,13 2,27 -5,39 -1,1 -1,2 -2,3l-35 58 -38 60 0 1c-25,39 -51,79 -76,119 -24,39 -48,78 -72,117l-1 0 0 1 0 0c-35,55 -70,110 -104,165 16,28 33,55 51,83l0 0c22,38 46,77 71,117 25,41 49,80 73,117l0 1c40,66 80,132 130,213l-1 0c8,11 14,21 20,31 7,10 13,20 19,30l0 0 0 1 0 0c7,13 8,27 5,40 -4,13 -12,25 -24,32l0 0z"/>
   </g>
  </g>
 </g>
</svg>
