<?xml version="1.0" encoding="UTF-8"?>
<!DOCTYPE svg PUBLIC "-//W3C//DTD SVG 1.1//EN" "http://www.w3.org/Graphics/SVG/1.1/DTD/svg11.dtd">
<!-- Creator: CorelDRAW X6 -->
<svg xmlns="http://www.w3.org/2000/svg" xml:space="preserve" version="1.1" style="shape-rendering:geometricPrecision; text-rendering:geometricPrecision; image-rendering:optimizeQuality; fill-rule:evenodd; clip-rule:evenodd"
viewBox="0 0 3540000 3540000"
 xmlns:xlink="http://www.w3.org/1999/xlink"
 enable-background="new 0 0 32 32">
 <defs>
  <style type="text/css">
   <![CDATA[
    .fil1 {fill:#37446E;fill-rule:nonzero}
    .fil0 {fill:#FFBC65;fill-rule:nonzero}
   ]]>
  </style>
 </defs>
 <g>
  <metadata id="CorelCorpID_0Corel-Layer"/>
  <path class="fil0" d="M2070912 1785635l-1142264 0c-23081,22361 -42043,45383 -57643,69030 -33240,48557 -50221,107345 -50221,175726 0,63259 12225,120135 35967,169979 23730,49831 58315,91367 102412,125882 44097,34515 97680,60711 158722,79225 61737,18550 129576,28120 204175,28120 97681,0 184517,-10845 259116,-32592 74624,-21712 139063,-45359 191963,-69655 52899,-24910 96335,-47908 130236,-69007 33241,-21086 59697,-31942 77998,-31942 10856,0 20344,1899 27825,6383 8118,4473 14915,12143 20355,23636 4743,10879 8803,25570 11517,44120 2725,17865 4082,40887 4082,68346 0,38350 -3398,69655 -10856,92677 -7481,22998 -18325,42161 -33925,56864 -14915,14691 -42055,33241 -81396,54327 -39341,21075 -87497,41513 -145140,61986 -57678,19800 -122779,36414 -196718,50456 -73278,13429 -153317,20473 -239457,20473 -123440,0 -238077,-15340 -344572,-46657 -106483,-31317 -199420,-77962 -278102,-139311 -79379,-61985 -140420,-136738 -185178,-225568 -44096,-88819 -66481,-189792 -66481,-302883 0,-78600 11540,-148255 33925,-209615l-51566 0c-16272,0 -29854,-8295 -42055,-25547 -11517,-16614 -17641,-46008 -17641,-88819 0,-38350 6124,-66457 17641,-85007 12201,-17889 25783,-26845 42055,-26845l204164 0c54940,-49831 115994,-93291 185177,-130980 69880,-38338 141777,-73478 214359,-104170 45453,-20450 90199,-40262 135653,-60062l-739353 0c-16272,0 -29854,-8319 -42055,-25571 -11517,-16614 -17641,-47282 -17641,-91367 0,-38987 6124,-67732 17641,-85633 12201,-18538 25783,-27482 42055,-27482l1108350 0c10880,-12130 21040,-25547 29843,-38975 33240,-48557 50220,-106720 50220,-173826 0,-46008 -8838,-89444 -25783,-130355 -17641,-40887 -43400,-76676 -77998,-106070 -33936,-30043 -78021,-53690 -130921,-72204 -52899,-17901 -115321,-26845 -186534,-26845 -77337,0 -146521,8944 -208258,27470 -61042,17889 -114637,37713 -160079,59425 -44757,22373 -82742,41548 -113941,59437 -31199,17251 -53595,26196 -68499,26196 -9499,0 -17641,-2549 -25098,-8296 -6797,-5758 -12898,-14703 -16981,-26196 -3374,-12142 -6761,-26845 -8802,-44085 -2054,-17900 -2714,-37712 -2714,-60085 0,-24273 660,-43436 2017,-58162 1381,-15317 3399,-28120 6125,-38339 2714,-10844 5416,-19788 9475,-26821 4083,-6396 12225,-15989 25099,-28108 12224,-11528 38680,-27494 78682,-46669 39353,-19163 84795,-37063 135676,-52403 50882,-15978 105823,-28120 163478,-37690 56982,-9605 114637,-14077 171619,-14077 111238,0 215019,14077 310658,42197 96300,28107 179077,68994 248933,122035 69184,53690 123464,120136 162781,199397 39341,79225 58339,168693 58339,269642 0,67755 -7457,128466 -23741,183407l113280 0c18998,0 33240,8944 44096,27482 10184,17901 15600,46646 15600,85633 0,44085 -6112,74753 -17617,91367 -12237,17252 -25795,25571 -42079,25571l-246219 0 -25759 26196c-54280,52404 -116018,97775 -185201,136113 -68511,38987 -139736,74127 -212294,106719 -21040,8944 -42740,17240 -63779,26184l733252 0c18998,0 33240,8956 44096,26845 10184,18550 15600,46657 15600,85007 0,42811 -6112,72205 -17617,88819 -12237,17252 -25795,25547 -42079,25547z"/>
  <path class="fil1" d="M2209208 2637371c-26468,0 -46811,-2537 -61726,-8296 -14254,-5746 -25099,-15977 -31895,-30031 -6101,-14702 -10160,-33217 -10845,-55601 -660,-22349 -660,-50481 -660,-84347l0 -264544c-18326,-1274 -37336,-1923 -55626,-1923l-143794 0 0 1059498c0,10219 -2738,19163 -8154,26196 -5428,7670 -14243,13417 -27825,17889 -12862,4472 -30503,8295 -52203,11505 -22396,3186 -49536,4472 -82777,4472 -31872,0 -59000,-1286 -81384,-4472 -22373,-3210 -40710,-7033 -53596,-11505 -13558,-4472 -22373,-10219 -27813,-17889 -5416,-7033 -8142,-15977 -8142,-26196l0 -1466504 342543 0 0 130957 143145 0c18290,0 37300,0 55626,0l0 -245393c0,-35152 0,-64546 660,-88193 685,-23636 4744,-42799 12213,-56239 7458,-14042 18314,-24249 32568,-30008 14255,-6395 35955,-9605 63744,-9605 27152,0 48156,2561 63095,8307 14242,5771 25086,16001 31883,30043 6113,14703 10172,33229 10844,55614 673,22337 673,50456 673,84311l0 200670c34586,-15340 65797,-34503 93621,-58150 46115,-36415 86801,-82435 122095,-138048 35246,-55566 66446,-121387 94282,-198087l194676 -529100c4059,-12142 9499,-23647 15600,-33217 6773,-10242 16945,-18538 29842,-24945 13558,-5747 31199,-10833 54256,-14042 23093,-3198 53596,-4472 90223,-4472 34610,0 61714,1274 82754,3823 21700,2572 37996,6395 50881,10868 12201,5121 20355,11505 24414,19175 4083,7681 6101,15977 6101,26196 0,13416 -2018,28756 -6773,45996 -4756,16626 -10868,36450 -18986,58788l-204176 504214c-29181,76676 -59696,141859 -90223,197449 -31199,54953 -65112,101586 -102435,141234 -37300,39601 -77314,71555 -120750,97775 -44085,25535 -92925,45359 -147169,60711l0 3823c62398,21075 117339,45348 165506,73479 48841,28107 92914,63248 134296,104170 40698,40875 78694,90719 113280,148881 33913,58150 67850,127157 101091,208305l242124 576407c13582,32603 21051,55601 23742,68369 2714,13416 4094,24933 4094,34503 0,11505 -2726,21098 -8154,28131 -4755,7670 -14242,14066 -26455,19163 -12886,4473 -29831,8319 -52227,10880 -22385,2537 -50185,3823 -83450,3823 -37972,0 -69171,-1286 -92228,-4472 -23058,-3210 -41383,-8319 -54941,-14054 -14243,-6395 -24438,-14077 -31896,-23647 -7445,-9593 -12885,-21087 -16956,-34515l-236720 -591723c-31199,-79886 -66481,-147606 -105126,-203845 -37996,-56239 -82777,-102247 -132963,-138673 -34609,-26208 -71213,-46658 -111250,-61974l0 214064c0,35140 -673,64534 -2030,88169 -1368,23659 -5428,42823 -11528,56239 -6785,14066 -17641,24285 -33241,30043 -14927,6396 -36627,9570 -63755,9570zm-646440 -1077954l0 -635241c0,-8944 2726,-17252 8142,-24284 5440,-7670 14255,-13417 27813,-17889 12886,-4472 31223,-8296 53596,-11505 22384,-3198 49512,-4472 81384,-4472 33241,0 61053,1274 82777,4472 21700,3209 39341,7033 52900,11505 12885,4472 22384,10219 27800,17889 5440,7681 8131,15340 8131,24284l0 635241 -342543 0z"/>
 </g>
</svg>
