<?xml version="1.0" encoding="UTF-8"?>
<!DOCTYPE svg PUBLIC "-//W3C//DTD SVG 1.1//EN" "http://www.w3.org/Graphics/SVG/1.1/DTD/svg11.dtd">
<!-- Creator: CorelDRAW X7 -->
<svg xmlns="http://www.w3.org/2000/svg" xml:space="preserve" version="1.1" style="shape-rendering:geometricPrecision; text-rendering:geometricPrecision; image-rendering:optimizeQuality; fill-rule:evenodd; clip-rule:evenodd"
viewBox="0 0 27831 10315"
 xmlns:xlink="http://www.w3.org/1999/xlink">
 <defs>
  <style type="text/css">
   <![CDATA[
    .fil4 {fill:#FEFEFE}
    .fil14 {fill:gainsboro}
    .fil9 {fill:#FFF7B2}
    .fil13 {fill:#FDE6CC}
    .fil16 {fill:#D19563}
    .fil15 {fill:#F5B06F}
    .fil3 {fill:#E9E9E9}
    .fil11 {fill:#D7EEFC}
    .fil1 {fill:#CDEAFB}
    .fil12 {fill:#CDEAFB}
    .fil8 {fill:#C9D4ED}
    .fil5 {fill:#A1A3A3}
    .fil0 {fill:#6B88B1}
    .fil2 {fill:#6B88B1}
    .fil7 {fill:#475F98}
    .fil6 {fill:#CAD5E3}
    .fil10 {fill:#6B88B1;fill-rule:nonzero}
   ]]>
  </style>
 </defs>
 <g id="Слой_x0020_1">
  <metadata id="CorelCorpID_0Corel-Layer"/>
  <path class="fil0" d="M23106 5692l4672 0c29,0 53,-24 53,-53 0,-29 -24,-53 -53,-53l-4672 0c-29,0 -52,24 -52,53 0,29 23,53 52,53z"/>
  <path class="fil0" d="M53 5692l7181 0 0 -106 -7181 0c-29,0 -53,24 -53,53 0,29 24,53 53,53z"/>
  <path class="fil1" d="M18074 6721l-10215 0 0 -6137c0,-293 238,-531 532,-531l9151 0c294,0 532,238 532,531l0 6137z"/>
  <path class="fil2" d="M18074 6721l0 -53 -10162 0 0 -6084c0,-132 54,-251 140,-338 87,-87 206,-140 339,-140l9151 0c133,0 252,53 339,140 86,87 140,206 140,338l0 6137 53 0 0 -53 0 53 53 0 0 -6137c0,-322 -262,-584 -585,-584l-9151 0c-323,0 -585,262 -585,584l0 6137c0,14 6,27 16,37 10,10 23,16 37,16l10215 0c14,0 27,-6 37,-16 10,-10 16,-23 16,-37l-53 0z"/>
  <polygon class="fil3" points="19311,8233 6622,8233 7859,6721 18074,6721 "/>
  <path class="fil0" d="M19311 8233l0 -53 -12578 0 1151 -1406 10165 0 1221 1493 41 -34 0 -53 0 53 41 -33 -1237 -1513c-10,-12 -25,-19 -41,-19l-10215 0c-16,0 -31,7 -41,19l-1237 1513c-13,15 -16,37 -7,56 9,18 27,30 48,30l12689 0c20,0 39,-12 48,-30 9,-19 6,-41 -7,-56l-41 33z"/>
  <path class="fil4" d="M18841 8811l-11749 0c-260,0 -470,-210 -470,-470l0 -108 12689 0 0 108c0,260 -211,470 -470,470z"/>
  <path class="fil0" d="M18841 8811l0 -53 -11749 0c-115,0 -219,-46 -295,-122 -76,-76 -122,-180 -122,-295l0 -55 12583 0 0 55c0,115 -46,219 -122,295 -76,76 -180,122 -295,122l0 53 0 53c289,0 523,-234 523,-523l0 -108c0,-14 -6,-28 -16,-37 -9,-10 -23,-16 -37,-16l-12689 0c-14,0 -28,6 -38,16 -9,9 -15,23 -15,37l0 108c0,289 234,523 523,523l11749 0 0 -53z"/>
  <polygon class="fil5" points="7537,7799 8065,7154 17868,7154 18396,7799 "/>
  <polygon class="fil6" points="7537,7799 8065,7154 17868,7154 18396,7799 "/>
  <path class="fil0" d="M7537 7799l111 -52 442 -540 9753 0 441 540 -10636 0 -111 52 0 53 10859 0c20,0 39,-11 48,-30 9,-18 6,-40 -7,-56l-528 -645c-10,-12 -25,-20 -41,-20l-9803 0c-16,0 -31,8 -41,20l-528 645c-13,16 -16,38 -7,56 9,19 27,30 48,30l0 -53z"/>
  <path class="fil0" d="M7801 7530l10273 0c29,0 53,-24 53,-53 0,-29 -24,-53 -53,-53l-10273 0c-29,0 -53,24 -53,53 0,29 24,53 53,53z"/>
  <path class="fil0" d="M8599 7123l-467 645c-17,24 -12,57 12,74 24,17 57,12 74,-12l467 -645c17,-23 12,-56 -12,-73 -24,-18 -57,-12 -74,11z"/>
  <path class="fil0" d="M9173 7126l-404 645c-16,25 -8,58 16,73 25,16 58,8 73,-16l405 -646c15,-24 8,-57 -17,-72 -25,-16 -57,-8 -73,16z"/>
  <path class="fil0" d="M9747 7130l-342 645c-14,25 -4,57 22,71 26,14 58,4 71,-22l343 -645c13,-26 4,-58 -22,-71 -26,-14 -58,-4 -72,22z"/>
  <path class="fil0" d="M10322 7133l-280 645c-12,27 0,58 27,70 27,12 58,-1 70,-27l280 -646c11,-26 -1,-58 -28,-69 -27,-12 -58,1 -69,27z"/>
  <path class="fil0" d="M10896 7137l-218 646c-9,27 6,57 33,67 28,9 58,-6 68,-34l217 -645c10,-27 -5,-57 -33,-67 -28,-9 -58,6 -67,33z"/>
  <path class="fil0" d="M11471 7142l-156 645c-7,28 11,57 39,64 29,7 57,-11 64,-39l156 -645c7,-29 -11,-57 -39,-64 -29,-7 -57,11 -64,39z"/>
  <path class="fil0" d="M12046 7147l-93 645c-5,29 15,56 44,60 29,4 56,-16 60,-45l94 -645c4,-29 -16,-56 -45,-60 -29,-4 -56,16 -60,45z"/>
  <path class="fil0" d="M12622 7152l-32 645c-1,29 22,54 51,55 29,2 54,-21 55,-50l31 -645c2,-29 -21,-54 -50,-55 -29,-2 -54,21 -55,50z"/>
  <path class="fil0" d="M13198 7157l31 645c1,29 26,52 55,50 29,-1 52,-26 50,-55l-31 -645c-1,-29 -26,-52 -55,-50 -29,1 -52,26 -50,55z"/>
  <path class="fil0" d="M13774 7162l94 645c4,29 31,49 59,45 29,-4 49,-31 45,-60l-93 -645c-4,-29 -31,-49 -60,-45 -29,4 -49,31 -45,60z"/>
  <path class="fil0" d="M14351 7167l156 645c7,28 35,46 64,39 28,-7 46,-36 39,-64l-156 -645c-7,-28 -35,-46 -64,-39 -28,7 -46,35 -39,64z"/>
  <path class="fil0" d="M14929 7171l217 645c10,28 40,43 67,34 28,-10 43,-40 34,-67l-218 -646c-9,-27 -40,-42 -67,-33 -28,10 -43,40 -33,67z"/>
  <path class="fil0" d="M15506 7175l280 646c12,26 43,39 70,27 27,-12 39,-43 27,-70l-280 -645c-11,-26 -42,-39 -69,-27 -27,11 -39,43 -28,69z"/>
  <path class="fil0" d="M16084 7179l342 645c14,26 46,36 72,22 26,-14 36,-46 22,-71l-342 -645c-14,-26 -46,-36 -72,-22 -26,13 -36,45 -22,71z"/>
  <path class="fil0" d="M16662 7182l405 646c15,24 48,32 73,16 24,-15 32,-48 16,-73l-404 -645c-16,-24 -48,-32 -73,-16 -25,15 -32,48 -17,72z"/>
  <polygon class="fil7" points="8379,6201 8379,573 17553,573 17553,6201 "/>
  <polygon class="fil8" points="8379,6201 8379,573 17553,573 17553,6201 "/>
  <path class="fil2" d="M8379 6201l53 0 0 -5575 9068 0 0 5522 -9121 0 0 53 53 0 -53 0 0 52 9174 0c14,0 28,-5 38,-15 10,-10 15,-24 15,-37l0 -5628c0,-14 -5,-27 -15,-37 -10,-10 -24,-16 -38,-16l-9174 0c-13,0 -27,6 -37,16 -10,10 -15,23 -15,37l0 5628c0,13 5,27 15,37 10,10 24,15 37,15l0 -52z"/>
  <path class="fil0" d="M12629 308c0,-62 50,-112 112,-112 61,0 111,50 111,112 0,62 -50,112 -111,112 -62,0 -112,-50 -112,-112z"/>
  <path class="fil0" d="M13757 8522l-1581 0c-130,0 -236,-105 -236,-235l0 -54 2053 0 0 54c0,130 -106,235 -236,235z"/>
  <polygon class="fil9" points="20336,4659 20336,5263 21667,4342 20336,3421 20336,3882 15192,3882 15192,4659 "/>
  <path class="fil10" d="M20386 4659l0 509 1193 -826 -1193 -825 0 365c0,28 -22,50 -50,50l-5094 0 0 677 5094 0c28,0 50,22 50,50zm-100 604l0 -554 -5094 0c-27,0 -50,-23 -50,-50l0 -777c0,-27 23,-50 50,-50l5094 0 0 -411 0 0c0,-9 3,-19 9,-28 16,-23 47,-28 70,-13l1329 921c5,3 10,8 14,13 15,23 10,54 -13,69l-1327 919c-9,7 -20,11 -32,11 -27,0 -50,-22 -50,-50z"/>
  <path class="fil0" d="M10763 9627l974 0c29,0 52,-23 52,-53 0,-29 -23,-53 -52,-53l-974 0c-30,0 -53,24 -53,53 0,30 23,53 53,53z"/>
  <path class="fil0" d="M9055 10315l4671 0c29,0 53,-24 53,-53 0,-29 -24,-53 -53,-53l-4671 0c-30,0 -53,24 -53,53 0,29 23,53 53,53z"/>
  <path class="fil0" d="M12402 9627l3445 0c29,0 53,-23 53,-53 0,-29 -24,-53 -53,-53l-3445 0c-30,0 -53,24 -53,53 0,30 23,53 53,53z"/>
  <path class="fil11" d="M9470 3245c676,-675 1771,-675 2446,0 675,675 675,1770 0,2446 -675,675 -1770,675 -2446,0 -675,-676 -675,-1771 0,-2446z"/>
  <path class="fil0" d="M9470 3245l38 37c327,-327 756,-490 1185,-491 429,0 858,164 1186,491 327,328 490,757 491,1186 -1,429 -164,858 -491,1185 -328,328 -757,491 -1186,491 -429,0 -858,-163 -1185,-491 -328,-327 -491,-756 -491,-1185 0,-429 163,-858 491,-1186l-38 -37 -37 -37c-348,347 -522,804 -522,1260 0,456 174,912 522,1260 348,348 804,522 1260,522 456,0 913,-174 1260,-522 348,-348 522,-804 522,-1260 0,-456 -174,-913 -522,-1260 -347,-348 -804,-522 -1260,-522 -456,0 -912,174 -1260,522l37 37z"/>
  <path class="fil0" d="M11654 5429l38 37c263,-263 413,-606 413,-954 0,-374 -125,-754 -413,-1042 -276,-276 -637,-414 -998,-414 -362,0 -723,138 -999,414 -275,275 -413,637 -413,998 0,361 138,723 413,998 288,288 668,413 1042,413 348,0 691,-149 955,-413l-38 -37 -37 -37c-245,245 -562,381 -880,381 -351,0 -702,-116 -967,-381 -255,-256 -382,-589 -382,-924 0,-334 127,-668 382,-923 255,-255 589,-383 924,-383 334,0 668,128 923,383 265,265 382,616 382,967 0,317 -137,634 -382,880l37 37z"/>
  <path class="fil0" d="M9679 4854c94,251 276,470 530,607 26,14 58,4 72,-22 14,-25 4,-58 -21,-71 -231,-125 -396,-323 -482,-551 -10,-27 -41,-41 -68,-31 -27,10 -41,41 -31,68z"/>
  <path class="fil0" d="M10441 5555c79,23 161,36 242,41 29,2 54,-20 56,-49 2,-29 -21,-54 -50,-56 -73,-5 -147,-17 -219,-38 -29,-8 -58,8 -66,36 -8,29 8,58 37,66z"/>
  <path class="fil10" d="M11426 5286c-26,18 -61,7 -76,-20 -28,-45 -56,-91 -85,-137 -58,-98 -119,-196 -180,-294 -54,-89 -108,-178 -163,-268 -11,-17 -21,-32 -32,-49l-148 0 0 291c0,29 -24,53 -53,53 -30,0 -53,-24 -53,-53l0 -291 -154 0c0,113 0,228 0,341 0,92 0,181 0,272 0,38 0,72 0,109 0,28 -27,55 -57,55 -30,0 -54,-27 -54,-55 0,-37 0,-74 0,-109 0,-91 0,-182 0,-272 0,-120 0,-237 0,-354 0,-117 0,-234 0,-351 0,-91 0,-182 0,-271 0,-37 0,-71 0,-108 0,-28 24,-54 54,-54 30,0 57,26 57,54 0,37 0,73 0,108 0,91 0,182 0,271 0,84 0,168 0,253l154 0 0 -296c0,-29 23,-53 53,-53 29,0 53,24 53,53l0 296 152 0c24,-39 48,-80 74,-119 63,-100 124,-199 187,-297 45,-75 93,-149 139,-223 4,-6 8,-13 13,-19 15,-26 47,-37 73,-22 27,15 37,50 20,76 -30,50 -61,100 -91,149 -63,98 -126,197 -187,297 -46,71 -91,143 -135,214 22,37 44,74 68,111 58,98 119,196 180,294 54,89 109,179 163,268 17,26 32,50 48,76 15,26 4,61 -20,74z"/>
  <polygon class="fil12" points="22094,6043 22447,5690 22027,5271 21674,5624 "/>
  <path class="fil0" d="M22094 6043l37 38 353 -353c10,-10 16,-24 16,-38 0,-13 -6,-27 -16,-37l-419 -420c-21,-20 -54,-20 -75,0l-353 353c-21,21 -21,55 0,75l420 420c9,10 23,15 37,15 14,0 28,-5 37,-15l-37 -38 37 -37 -382 -382 278 -278 345 344 -315 316 37 37 37 -37 -37 37z"/>
  <path class="fil13" d="M24049 7737l91 -92c111,-110 111,-290 0,-400l-1624 -1624 -491 492 1624 1624c110,110 289,110 400,0z"/>
  <path class="fil0" d="M24049 7737l37 37 92 -92c65,-65 98,-151 98,-237 0,-86 -33,-172 -98,-237l-1624 -1624c-21,-21 -54,-21 -75,0l-492 491c-20,21 -20,55 0,75l1624 1624c66,65 152,98 237,98 86,0 172,-33 238,-98l-37 -37 -38 -38c-45,45 -104,67 -163,68 -59,-1 -117,-23 -162,-68l-1587 -1586 417 -417 1587 1586c45,45 67,104 67,163 0,59 -22,118 -67,163l-92 91 38 38z"/>
  <path class="fil11" d="M19685 5204c-530,-531 -530,-1391 0,-1922 531,-531 1391,-531 1922,0 531,531 531,1391 0,1922 -531,530 -1391,530 -1922,0zm-320 320c708,707 1855,707 2562,0 708,-708 708,-1855 0,-2562 -707,-708 -1854,-708 -2562,0 -707,707 -708,1854 0,2562z"/>
  <path class="fil0" d="M19685 5204l38 -38c-255,-255 -383,-589 -383,-923 0,-335 128,-669 383,-924 255,-255 589,-382 923,-382 335,0 669,127 924,382 265,265 381,617 381,967 1,318 -136,635 -381,880 -245,245 -562,382 -880,382 -351,0 -702,-117 -967,-382l-38 38 -37 37c288,288 668,413 1042,413 348,0 691,-150 955,-413 263,-263 412,-606 412,-955 0,-373 -125,-754 -412,-1042 -276,-275 -638,-413 -999,-413 -361,0 -722,138 -998,413 -276,276 -414,638 -414,999 0,361 138,722 414,998l37 -37zm-320 320l-37 37c367,368 849,547 1330,546 473,1 946,-185 1307,-546 359,-358 546,-828 546,-1299 0,-483 -177,-969 -546,-1338 -370,-370 -858,-546 -1342,-546 -470,0 -938,188 -1295,546 -356,356 -546,821 -546,1290 0,485 174,975 546,1347l37 -37 37 -38c-350,-350 -514,-811 -514,-1272 0,-440 178,-878 514,-1215 339,-338 779,-515 1221,-515 459,0 918,166 1267,515 348,348 515,806 515,1263 0,443 -176,885 -515,1224 -341,341 -786,516 -1232,516 -455,0 -909,-169 -1256,-516l-37 38z"/>
  <path class="fil0" d="M21607 5204l38 37c263,-263 412,-606 412,-955 0,-373 -125,-754 -412,-1042 -276,-275 -638,-413 -999,-413 -361,0 -722,138 -998,413 -276,276 -414,638 -414,999 0,361 138,722 414,998 288,288 668,413 1042,413 348,0 691,-150 955,-413l-38 -37 -37 -38c-245,245 -562,382 -880,382 -351,0 -702,-117 -967,-382 -255,-255 -383,-589 -383,-923 0,-335 128,-669 383,-924 255,-255 589,-382 923,-382 335,0 669,127 924,382 265,265 381,617 381,967 1,318 -136,635 -381,880l37 38z"/>
  <path class="fil0" d="M21728 4163c-18,-267 -130,-529 -334,-733 -20,-21 -54,-21 -75,0 -20,21 -20,54 0,75 186,185 287,423 304,665 2,30 27,52 56,50 29,-2 51,-28 49,-57z"/>
  <path class="fil0" d="M21200 3274c-70,-45 -144,-82 -220,-110 -28,-10 -58,4 -68,32 -10,27 4,58 31,68 69,25 136,58 200,99 24,16 57,8 73,-16 16,-25 8,-58 -16,-73z"/>
  <path class="fil0" d="M22209 5471l-344 343c-21,21 -21,55 0,75 21,21 54,21 75,0l344 -344c20,-20 20,-54 0,-74 -21,-21 -55,-21 -75,0z"/>
  <path class="fil0" d="M23932 7037l-492 492c-20,20 -20,54 0,74 21,21 55,21 75,0l492 -491c21,-21 21,-54 0,-75 -21,-21 -54,-21 -75,0z"/>
  <path class="fil0" d="M23784 6889l-491 492c-21,21 -21,54 0,75 20,20 54,20 75,0l491 -492c21,-21 21,-54 0,-75 -20,-20 -54,-20 -75,0z"/>
  <path class="fil0" d="M18826 6212l3790 -3789c21,-21 21,-54 0,-75 -21,-21 -54,-21 -75,0l-3789 3790c-21,20 -21,54 0,74 20,21 54,21 74,0z"/>
  <path class="fil14" d="M13567 2508c0,-800 -1201,-800 -1201,0 -92,0 -184,0 -276,0 0,-1168 1753,-1168 1753,0 -92,0 -184,0 -276,0z"/>
  <path class="fil14" d="M13567 2508c0,-800 -1201,-800 -1201,0 -92,0 -184,0 -276,0 0,-1168 1753,-1168 1753,0 -92,0 -184,0 -276,0z"/>
  <path class="fil0" d="M13567 2508l52 0c1,-213 -81,-380 -205,-490 -123,-109 -286,-163 -448,-163 -161,0 -324,54 -447,163 -124,110 -206,277 -206,490l53 0 0 -53c-92,0 -184,0 -276,0l0 53 53 0c1,-279 103,-481 256,-618 153,-136 360,-205 567,-205 208,0 415,69 568,205 153,137 255,339 256,618l53 0 0 -53c-92,0 -184,0 -276,0l0 53 52 0 -52 0 0 53c92,0 184,0 276,0 14,0 27,-6 37,-16 10,-9 16,-23 16,-37 0,-305 -116,-541 -292,-697 -175,-155 -407,-232 -638,-232 -230,0 -462,77 -637,232 -176,156 -292,392 -292,697 0,14 6,28 16,37 10,10 23,16 37,16 92,0 184,0 276,0 14,0 28,-6 38,-16 10,-9 15,-23 15,-37 1,-187 69,-320 170,-411 101,-90 239,-136 377,-136 139,0 276,46 378,136 101,91 169,224 170,411 0,14 5,28 15,37 10,10 24,16 38,16l0 -53z"/>
  <polygon class="fil5" points="12366,3661 12090,3661 12090,2508 12366,2508 "/>
  <path class="fil0" d="M12366 3661l0 -53 -223 0 0 -1047 170 0 0 1100 53 0 0 -53 0 53 53 0 0 -1153c0,-14 -5,-28 -15,-37 -10,-10 -24,-16 -38,-16l-276 0c-14,0 -27,6 -37,16 -10,9 -16,23 -16,37l0 1153c0,14 6,27 16,37 10,10 23,16 37,16l276 0c14,0 28,-6 38,-16 10,-10 15,-23 15,-37l-53 0z"/>
  <polygon class="fil5" points="13843,3661 13567,3661 13567,2508 13843,2508 "/>
  <path class="fil0" d="M13843 3661l0 -53 -224 0 0 -1047 171 0 0 1100 53 0 0 -53 0 53 53 0 0 -1153c0,-14 -6,-28 -16,-37 -10,-10 -23,-16 -37,-16l-276 0c-14,0 -28,6 -38,16 -10,9 -15,23 -15,37l0 1153c0,14 5,27 15,37 10,10 24,16 38,16l276 0c14,0 27,-6 37,-16 10,-10 16,-23 16,-37l-53 0z"/>
  <polygon class="fil15" points="14324,5142 11609,5142 11609,3179 14324,3179 "/>
  <path class="fil0" d="M14324 5142l0 -53 -2662 0 0 -1858 2609 0 0 1911 53 0 0 -53 0 53 53 0 0 -1963c0,-14 -5,-28 -15,-38 -10,-10 -24,-15 -38,-15l-2715 0c-14,0 -28,5 -38,15 -10,10 -15,24 -15,38l0 1963c0,14 5,28 15,37 10,10 24,16 38,16l2715 0c14,0 28,-6 38,-16 10,-9 15,-23 15,-37l-53 0z"/>
  <path class="fil0" d="M13172 3959c0,-114 -92,-206 -206,-206 -113,0 -205,92 -205,206 0,83 50,155 122,187l-122 422 205 0 206 0 -122 -422c72,-32 122,-104 122,-187z"/>
  <polygon class="fil0" points="11945,4635 11609,4635 11609,4779 11945,4779 "/>
  <polygon class="fil0" points="11945,4424 11609,4424 11609,4568 11945,4568 "/>
  <polygon class="fil0" points="14324,4635 13988,4635 13988,4779 14324,4779 "/>
  <polygon class="fil0" points="14324,4424 13988,4424 13988,4568 14324,4568 "/>
  <polygon class="fil0" points="11945,3964 11609,3964 11609,4108 11945,4108 "/>
  <polygon class="fil0" points="11945,3753 11609,3753 11609,3897 11945,3897 "/>
  <polygon class="fil0" points="14324,3964 13988,3964 13988,4108 14324,4108 "/>
  <polygon class="fil0" points="14324,3753 13988,3753 13988,3897 14324,3897 "/>
  <path class="fil0" d="M3512 6661l3445 0c29,0 53,-23 53,-53 0,-29 -24,-53 -53,-53l-3445 0c-30,0 -53,24 -53,53 0,30 23,53 53,53z"/>
  <path class="fil9" d="M10098 2060l0 605 1330 -921 -1330 -921 0 461 -4806 0c214,175 354,335 367,350 17,20 17,49 0,69 -13,15 -157,180 -376,357l4815 0z"/>
  <path class="fil10" d="M10148 2060l0 509 1193 -825 -1193 -826 0 366c0,28 -22,50 -50,50l-4746 0c-38,-33 -79,-66 -122,-100l4818 0 0 -411 0 0c0,-10 3,-20 9,-28 16,-23 47,-29 69,-13l1330 921c5,3 10,7 13,13 16,22 10,53 -12,69l-1327 919c-9,6 -20,11 -32,11 -28,0 -50,-23 -50,-50l0 -555 -4441 0 -7 -5c-22,-15 -50,-12 -68,5l-313 0c44,-33 86,-67 124,-100l4755 0c28,0 50,23 50,50z"/>
  <path class="fil0" d="M17257 7182l405 646c15,24 48,32 73,16 25,-15 32,-48 17,-73l-405 -645c-15,-24 -48,-32 -73,-16 -25,15 -32,48 -17,72z"/>
  <path class="fil2" d="M2304 2985l3965 -2469c25,-16 33,-48 17,-73 -15,-25 -48,-33 -73,-17l-3965 2470c-25,15 -32,48 -17,72 16,25 48,33 73,17z"/>
  <path class="fil2" d="M4220 2409l17 1c582,0 1170,-591 1310,-742 -140,-150 -728,-742 -1310,-742l-15 1 -12 0 0 0c-586,0 -1174,591 -1314,741 140,151 728,742 1310,742l14 -1zm17 107l-12 0 -7 0 -12 0c-713,0 -1393,-780 -1422,-813 -17,-20 -17,-49 0,-69 29,-34 709,-813 1422,-813l12 0 7 0 12 0c713,0 1393,779 1422,813 17,20 17,49 0,69 -29,33 -709,813 -1422,813z"/>
  <path class="fil16" d="M4221 1109c-134,0 -258,48 -354,127 58,42 97,111 97,189 0,130 -106,235 -236,235 -23,0 -44,-4 -65,-10 0,6 -1,12 -1,18 0,309 250,560 559,560 309,0 559,-251 559,-560 1,-309 -250,-559 -559,-559z"/>
  <path class="fil2" d="M3723 1719c26,252 240,450 498,450 276,0 501,-225 501,-501 0,-276 -225,-500 -501,-500 -93,0 -184,26 -263,75 41,51 65,115 65,182 0,164 -134,297 -300,294zm498 567c-341,0 -618,-277 -618,-618l1 -14c0,-18 9,-38 24,-49 15,-11 34,-17 51,-11 19,5 35,8 49,8 98,0 177,-80 177,-177 0,-56 -27,-108 -73,-142 -14,-11 -23,-28 -24,-46 0,-18 8,-35 22,-47 110,-90 249,-140 391,-140 341,0 618,277 618,618 0,341 -277,618 -618,618z"/>
  <path class="fil2" d="M4222 635c-30,0 -53,-24 -53,-53l-1 -268c0,-29 24,-53 53,-53l0 0c29,0 53,24 53,53l1 268c0,29 -24,53 -53,53l0 0z"/>
  <path class="fil2" d="M4222 3045c-30,0 -53,-24 -53,-53l-1 -268c0,-29 24,-53 53,-53l0 0c29,0 53,24 53,53l1 268c0,29 -24,53 -53,53l0 0z"/>
  <path class="fil2" d="M2311 1722c-29,0 -52,-24 -53,-53 0,-30 24,-53 53,-53l268 -1 0 0c29,0 53,24 53,53 0,29 -24,53 -53,53l-267 1 -1 0z"/>
  <path class="fil2" d="M5825 1722c-29,0 -53,-24 -53,-53 0,-30 24,-53 53,-53l268 -1 0 0c29,0 53,24 53,53 0,29 -24,53 -53,53l-268 1 0 0z"/>
  <path class="fil2" d="M5131 897c-11,0 -22,-3 -31,-10 -24,-17 -29,-50 -12,-74l133 -182c17,-23 50,-28 74,-11 23,17 28,50 11,74l-132 181c-11,15 -27,22 -43,22z"/>
  <path class="fil2" d="M5569 1227c-17,0 -33,-8 -43,-22 -17,-24 -12,-57 12,-74l184 -130c23,-17 56,-12 73,12 17,24 12,57 -12,74l-183 130c-10,7 -20,10 -31,10z"/>
  <path class="fil2" d="M2868 1227c-11,0 -21,-3 -31,-10l-183 -130c-24,-17 -30,-50 -13,-74 17,-24 50,-29 74,-12l184 130c23,17 29,50 12,74 -10,14 -27,22 -43,22z"/>
  <path class="fil2" d="M5752 2331c-10,0 -21,-3 -30,-10l-184 -130c-24,-17 -29,-50 -12,-74 17,-23 49,-29 74,-12l183 130c24,17 29,50 12,74 -10,14 -26,22 -43,22z"/>
  <path class="fil2" d="M4780 2909c-22,0 -42,-13 -50,-35l-76 -211c-10,-28 4,-58 32,-68 27,-10 57,4 67,32l77 211c10,28 -5,58 -32,68 -6,2 -12,3 -18,3z"/>
  <path class="fil2" d="M3672 2909c-6,0 -12,-1 -18,-3 -28,-10 -42,-40 -32,-68l76 -211c10,-28 40,-42 68,-32 28,10 42,40 32,68l-76 211c-8,22 -29,35 -50,35z"/>
  <path class="fil2" d="M4703 730c-6,0 -12,-1 -17,-3 -28,-10 -42,-40 -32,-68l76 -211c10,-28 40,-42 68,-32 27,10 42,40 32,68l-77 211c-7,22 -28,35 -50,35z"/>
  <path class="fil2" d="M3748 730c-22,0 -42,-13 -50,-35l-76 -211c-10,-28 4,-58 32,-68 27,-10 57,4 68,32l76 211c10,28 -5,58 -32,68 -6,2 -12,3 -18,3z"/>
  <path class="fil2" d="M2685 2331c-17,0 -33,-8 -44,-22 -17,-24 -11,-57 13,-74l183 -130c24,-17 57,-11 74,12 17,24 11,57 -12,74l-184 130c-9,7 -20,10 -30,10z"/>
  <path class="fil2" d="M3316 897c-17,0 -33,-7 -43,-22l-133 -181c-17,-24 -12,-57 12,-74 24,-17 57,-12 74,11l133 182c17,24 12,57 -12,74 -10,7 -20,10 -31,10z"/>
  <path class="fil2" d="M5263 2717c-16,0 -32,-7 -42,-22l-133 -181c-17,-24 -12,-57 12,-74 23,-17 56,-12 74,11l132 182c17,24 12,57 -11,74 -10,7 -21,10 -32,10z"/>
  <path class="fil2" d="M3183 2717c-11,0 -22,-3 -31,-10 -24,-17 -29,-50 -12,-74l133 -182c17,-23 50,-28 74,-11 24,17 29,50 12,74l-133 181c-10,15 -26,22 -43,22z"/>
 </g>
</svg>
